<svg width="16" height="16" viewBox="0 0 16 16" fill="none" xmlns="http://www.w3.org/2000/svg">
<path d="M15.3607 7.86244C15.2871 16.4381 16.2498 15.3066 8.05821 15.2988C-0.293834 15.2909 0.869954 16.4381 0.829293 7.86244C0.788631 -0.388335 0.0709978 0.493318 7.92742 0.484356H8.22966C15.9399 0.567256 15.3608 -0.579901 15.3531 7.86244H15.3607ZM13.5816 4.83771C13.2519 4.5554 12.9365 4.27758 12.6101 3.98967C10.6517 5.83588 8.69338 7.67424 6.80868 9.44651C5.47894 8.51444 4.32835 7.71679 3.18214 6.91804C2.88872 7.26756 2.59421 7.60813 2.2931 7.95766C3.70416 9.43865 5.10752 10.9185 6.69881 12.5989C9.24398 9.73777 12.1936 7.9655 13.5694 4.83883L13.5816 4.83771Z" fill="#3568F5"/>
</svg>
