<svg width="16" height="16" viewBox="0 0 16 16" fill="none" xmlns="http://www.w3.org/2000/svg">
<path d="M8.18025 0.733626C15.6443 0.815406 15.2454 -0.386615 15.1971 7.90337C15.1487 16.2774 16.296 15.4091 7.65277 15.4226C-0.0399008 15.4304 0.859041 16.1228 0.802995 8.42429V8.12293C0.827172 -0.397836 0.0688663 0.823269 8.17914 0.741489L8.18025 0.733626ZM4.33391 8.90374C5.73947 9.17261 6.7692 9.37539 7.72639 9.56248C7.96596 10.7511 8.17367 11.7593 8.38577 12.7609L9.03193 12.8583C9.9023 11.0513 10.7639 9.25329 11.7617 7.17743C10.1968 6.95337 9.23417 6.80324 8.29676 6.67329C8.03301 5.50933 7.80992 4.50896 7.38682 2.59666C6.14171 5.17328 5.2988 6.91753 4.32952 8.91161L4.33391 8.90374Z" fill="#6555C2"/>
</svg>
