<svg width="14" height="18" viewBox="0 0 14 18" fill="none" xmlns="http://www.w3.org/2000/svg">
<path d="M8.72702 7.17448C9.29665 6.81018 9.7616 6.30384 10.0761 5.70529C10.3906 5.10673 10.5439 4.4366 10.5207 3.76084C10.4976 3.08509 10.2989 2.42699 9.94426 1.85133C9.58957 1.27567 9.0911 0.802292 8.49791 0.477779C7.90471 0.153266 7.23724 -0.0111871 6.56119 0.00059098C5.88514 0.0123691 5.2238 0.199969 4.64228 0.544948C4.06075 0.889927 3.57907 1.3804 3.24465 1.96806C2.91023 2.55572 2.73459 3.22033 2.73502 3.89648C2.73224 4.55071 2.89601 5.1949 3.21091 5.76837C3.52581 6.34184 3.98149 6.82573 4.53502 7.17448C3.29403 7.28535 2.13973 7.85757 1.30011 8.7781C0.460481 9.69864 -0.00342223 10.9006 1.9009e-05 12.1465V16.2625L0.291019 16.3535C2.48664 17.0609 4.7773 17.4295 7.08403 17.4465C9.11474 17.5162 11.1358 17.1368 13.003 16.3355L13.258 16.2085H13.276V12.1655C13.2733 10.9213 12.8073 9.72277 11.9689 8.80354C11.1304 7.88431 9.97969 7.31032 8.74102 7.19349L8.72702 7.17448Z" fill="white"/>
</svg>
