<svg width="40" height="33" viewBox="0 0 40 33" fill="none" xmlns="http://www.w3.org/2000/svg">
<path d="M39.24 29.0012C39.1635 29.3151 39.0697 29.6246 38.959 29.9282C38.6899 30.6557 38.2099 31.2865 37.5803 31.7399C36.9508 32.1932 36.2004 32.4485 35.425 32.4731C35.225 32.4871 35.025 32.4842 34.825 32.4842H15.125C11.736 32.4842 8.34703 32.4902 4.95903 32.4842C4.03738 32.5206 3.13174 32.2353 2.39738 31.6772C1.66303 31.1191 1.14566 30.3229 0.934005 29.4252C0.854572 29.0713 0.814672 28.7098 0.815017 28.3472C0.799017 27.3692 0.807012 26.3922 0.810012 25.4142C0.810012 24.7632 1.09901 24.4892 1.74501 24.4622C2.2437 24.4679 2.74175 24.4247 3.23201 24.3332C3.95307 24.1452 4.5854 23.7104 5.01887 23.1043C5.45235 22.4982 5.65952 21.7593 5.60432 21.0162C5.54913 20.2731 5.23507 19.5729 4.71681 19.0375C4.19855 18.5021 3.50893 18.1655 2.76802 18.0861C2.38402 18.0451 1.99401 18.0632 1.60701 18.0431C1.40936 18.0524 1.21608 17.9832 1.06923 17.8506C0.922381 17.718 0.833876 17.5327 0.823013 17.3352C0.777897 15.9967 0.804619 14.6568 0.90303 13.3211C1.03542 12.4787 1.44028 11.7029 2.05562 11.1125C2.67095 10.5221 3.46282 10.1496 4.31001 10.0522C4.58326 10.0201 4.8518 9.95605 5.11003 9.86116C13.3574 6.78049 21.6034 3.69615 29.848 0.608153C30.1684 0.469401 30.5148 0.401031 30.8638 0.407667C31.2128 0.414303 31.5563 0.495792 31.8712 0.64662C32.186 0.797448 32.4648 1.01409 32.6887 1.28193C32.9126 1.54978 33.0764 1.86257 33.169 2.19916C34.021 4.70982 34.87 7.22182 35.716 9.73515C35.7385 9.83509 35.7898 9.92625 35.8636 9.99734C35.9374 10.0684 36.0303 10.1163 36.131 10.1351C36.889 10.2998 37.5817 10.6842 38.1224 11.2404C38.6631 11.7966 39.0279 12.4998 39.171 13.2622C39.191 13.3462 39.219 13.4282 39.243 13.5122V17.4971C39.1451 17.6932 38.9871 17.8528 38.7921 17.9528C38.5972 18.0528 38.3754 18.088 38.159 18.0532C37.8724 18.0346 37.5846 18.0446 37.3 18.0832C36.6806 18.1529 36.0951 18.402 35.6152 18.7999C35.1354 19.1978 34.7823 19.7272 34.5992 20.3231C34.4161 20.9189 34.411 21.5552 34.5845 22.1539C34.758 22.7526 35.1026 23.2876 35.576 23.6932C35.9308 23.9919 36.3433 24.2143 36.788 24.3463C37.2326 24.4782 37.6997 24.517 38.16 24.4602C38.3762 24.4267 38.5973 24.4623 38.7919 24.562C38.9866 24.6616 39.1448 24.8202 39.244 25.0152V29.0002L39.24 29.0012ZM2.45302 16.4172C3.63846 16.4395 4.77487 16.8943 5.64839 17.696C6.52192 18.4977 7.07233 19.591 7.19603 20.7702C7.32095 21.9158 7.02059 23.0674 6.35204 24.0061C5.90994 24.6427 5.32179 25.1641 4.63683 25.5267C3.95186 25.8892 3.19 26.0825 2.41502 26.0901C2.41502 26.8491 2.41502 27.5741 2.41502 28.2991C2.39157 28.6449 2.4427 28.9918 2.56496 29.3161C2.68721 29.6404 2.87773 29.9347 3.12361 30.1789C3.3695 30.4232 3.66501 30.6118 3.99013 30.7319C4.31524 30.852 4.66237 30.9009 5.00801 30.8752C7.74734 30.8752 10.4864 30.8752 13.225 30.8752C13.346 30.8752 13.467 30.8631 13.625 30.8551C13.625 30.5821 13.616 30.3341 13.625 30.0861C13.6211 29.9794 13.6392 29.873 13.6783 29.7735C13.7174 29.6741 13.7765 29.5838 13.8521 29.5082C13.9276 29.4327 14.0179 29.3735 14.1174 29.3344C14.2168 29.2954 14.3232 29.2772 14.43 29.2812C14.5367 29.2812 14.6424 29.3028 14.7405 29.3446C14.8387 29.3865 14.9274 29.4477 15.0014 29.5246C15.0753 29.6016 15.133 29.6926 15.1709 29.7924C15.2088 29.8921 15.2262 29.9985 15.222 30.1051C15.231 30.3521 15.222 30.5982 15.222 30.8752H35.182C35.232 30.8752 35.282 30.8752 35.332 30.8752C35.8511 30.8666 36.3517 30.6817 36.7515 30.3507C37.1514 30.0197 37.4267 29.5624 37.532 29.0542C37.6297 28.075 37.6741 27.0912 37.665 26.1071C36.3897 26.0937 35.171 25.5788 34.2724 24.6737C33.3738 23.7687 32.8676 22.5463 32.8632 21.2709C32.8589 19.9956 33.3568 18.7697 34.2492 17.8586C35.1416 16.9475 36.3569 16.4243 37.632 16.4022C37.632 15.6932 37.632 14.9822 37.632 14.2702C37.6638 13.9151 37.6171 13.5574 37.4951 13.2225C37.3732 12.8875 37.179 12.5835 36.9263 12.332C36.6737 12.0805 36.3689 11.8877 36.0333 11.7673C35.6978 11.6468 35.3399 11.6017 34.985 11.6351H15.225C15.225 11.9301 15.236 12.1902 15.225 12.4492C15.2241 12.553 15.2027 12.6557 15.1619 12.7512C15.1211 12.8467 15.0618 12.9332 14.9874 13.0058C14.9131 13.0783 14.8251 13.1353 14.7286 13.1737C14.632 13.212 14.5289 13.2309 14.425 13.2292C14.3211 13.2329 14.2174 13.2157 14.1203 13.1784C14.0232 13.1411 13.9346 13.0845 13.8598 13.0121C13.7851 12.9398 13.7258 12.853 13.6855 12.7571C13.6451 12.6612 13.6245 12.5582 13.625 12.4541C13.611 12.1941 13.625 11.9342 13.625 11.6822C13.5776 11.6632 13.5283 11.6492 13.478 11.6402C10.538 11.6402 7.60002 11.6212 4.66002 11.6512C4.10761 11.6654 3.5795 11.8812 3.17519 12.2579C2.77087 12.6346 2.51828 13.1461 2.46501 13.6961C2.39001 14.5882 2.45003 15.4962 2.45003 16.4181L2.45302 16.4172ZM34.081 10.0112C34.053 9.88815 34.043 9.81114 34.02 9.74714C33.224 7.38914 32.427 5.03182 31.629 2.67515C31.418 2.05515 31.013 1.89215 30.351 2.14015C23.4844 4.70682 16.6177 7.27348 9.75102 9.84015C9.65802 9.87515 9.57003 9.92515 9.39403 10.0092H34.077L34.081 10.0112Z" fill="#3A2ADF"/>
<path d="M15.2271 17.8612C15.2271 18.2992 15.2341 18.7373 15.2271 19.1743C15.2328 19.2839 15.2161 19.3936 15.1779 19.4966C15.1398 19.5996 15.0811 19.6937 15.0054 19.7733C14.9297 19.8528 14.8386 19.9161 14.7376 19.9593C14.6366 20.0024 14.5279 20.0245 14.4181 20.0242C14.3114 20.0235 14.206 20.0013 14.1081 19.959C14.0103 19.9166 13.9219 19.8549 13.8485 19.7776C13.775 19.7003 13.7179 19.609 13.6805 19.5091C13.6431 19.4092 13.6264 19.3028 13.6311 19.1962C13.6191 18.3082 13.6191 17.4199 13.6311 16.5312C13.6267 16.4247 13.6436 16.3183 13.6809 16.2184C13.7182 16.1185 13.775 16.0271 13.8482 15.9495C13.9213 15.8719 14.0092 15.8097 14.1067 15.7665C14.2042 15.7234 14.3094 15.7002 14.416 15.6982C14.5257 15.6988 14.6342 15.7215 14.7349 15.7648C14.8356 15.8081 14.9266 15.8713 15.0025 15.9505C15.0783 16.0297 15.1374 16.1233 15.1764 16.2258C15.2153 16.3283 15.2332 16.4377 15.229 16.5472V17.8602L15.2271 17.8612Z" fill="#3A2ADF"/>
<path d="M15.227 24.6493C15.227 25.0873 15.234 25.5253 15.227 25.9623C15.2324 26.0719 15.2155 26.1814 15.1774 26.2843C15.1393 26.3872 15.0807 26.4812 15.0052 26.5608C14.9296 26.6403 14.8387 26.7037 14.7379 26.7471C14.6372 26.7906 14.5287 26.8131 14.419 26.8133C14.3125 26.8117 14.2074 26.7888 14.1098 26.7459C14.0123 26.7031 13.9242 26.6412 13.8509 26.5639C13.7776 26.4866 13.7205 26.3954 13.6829 26.2957C13.6453 26.196 13.628 26.0898 13.632 25.9833C13.62 25.0953 13.62 24.2073 13.632 23.3193C13.6268 23.2128 13.6431 23.1063 13.6801 23.0062C13.7172 22.9061 13.7741 22.8146 13.8474 22.7372C13.9208 22.6597 14.0091 22.5979 14.107 22.5555C14.2049 22.513 14.3103 22.4909 14.417 22.4903C14.527 22.4886 14.6361 22.5096 14.7376 22.552C14.8391 22.5944 14.9308 22.6572 15.0069 22.7366C15.083 22.816 15.1419 22.9102 15.18 23.0134C15.218 23.1166 15.2343 23.2265 15.228 23.3363C15.237 23.7733 15.227 24.2113 15.227 24.6493Z" fill="#3A2ADF"/>
</svg>
