<svg width="51" height="48" viewBox="0 0 51 48" fill="none" xmlns="http://www.w3.org/2000/svg">
<g id="Group 230">
<path id="Path 1368" d="M50.0201 28.716C49.9201 29.103 49.8341 29.496 49.7131 29.8759C49.2751 31.2439 48.4129 32.4369 47.2514 33.2819C46.0899 34.127 44.6895 34.5802 43.2531 34.576C42.6581 34.586 42.0621 34.584 41.4661 34.576C41.2356 34.6003 41.0026 34.5724 40.7844 34.4943C40.5662 34.4162 40.3683 34.2899 40.2057 34.1248C40.043 33.9598 39.9196 33.7601 39.8447 33.5408C39.7698 33.3215 39.7454 33.0881 39.7731 32.858C39.7731 28.003 39.8351 23.145 39.7551 18.291C39.8007 15.7322 39.1444 13.2099 37.8574 10.9979C36.5704 8.78594 34.702 6.96885 32.455 5.74396C30.4203 4.58136 28.1334 3.93095 25.7913 3.84879C23.4492 3.76663 21.1223 4.25516 19.011 5.27231C16.8998 6.28946 15.0675 7.80471 13.6721 9.68749C12.2767 11.5703 11.36 13.7641 11.0011 16.08C10.881 16.9079 10.8205 17.7434 10.8201 18.58C10.8031 23.291 10.8121 28.0009 10.8121 32.7119C10.8121 33.9119 10.4331 34.449 9.25607 34.57C6.76907 34.826 4.42508 34.47 2.55008 32.601C1.91555 31.9881 1.41133 31.2535 1.06766 30.441C0.723984 29.6286 0.547943 28.7551 0.550079 27.873C0.534079 26.473 0.541079 25.066 0.550079 23.663C0.553264 21.8942 1.24764 20.1967 2.48502 18.9328C3.72239 17.6689 5.40476 16.9387 7.17307 16.898C7.34706 16.898 7.52106 16.898 7.71606 16.898C7.92168 14.3427 8.68472 11.8635 9.95145 9.63482C11.2182 7.40612 12.9578 5.48206 15.0481 3.99796C18.3803 1.60755 22.4435 0.457528 26.5342 0.746983C30.6249 1.03644 34.4857 2.74714 37.4481 5.58295C40.5745 8.53986 42.4977 12.548 42.8481 16.8369C43.4561 16.9089 44.0481 16.937 44.6241 17.054C45.9528 17.3184 47.1707 17.978 48.1182 18.9464C49.0657 19.9148 49.6986 21.1468 49.9341 22.481C49.9551 22.591 49.9921 22.697 50.0221 22.804V28.704L50.0201 28.716Z" fill="#3A2ADF" stroke="#3A2ADF"/>
<path id="Path 1369" d="M25.2573 47.427C24.5983 47.427 23.9373 47.446 23.2773 47.427C22.4666 47.4048 21.6968 47.0668 21.1318 46.485C20.5669 45.9031 20.2517 45.1237 20.2534 44.3127C20.2551 43.5018 20.5736 42.7236 21.1409 42.1441C21.7083 41.5647 22.4796 41.2298 23.2903 41.211C24.6236 41.1777 25.9593 41.1777 27.2973 41.211C28.108 41.2332 28.8778 41.5713 29.4428 42.1531C30.0077 42.7349 30.3229 43.5144 30.3212 44.3254C30.3195 45.1363 30.0011 45.9145 29.4337 46.4939C28.8664 47.0734 28.095 47.4082 27.2843 47.427C26.6133 47.447 25.9323 47.427 25.2573 47.427Z" fill="#3A2ADF" stroke="#3A2ADF"/>
<path id="Path 1370" d="M18.6052 43.4448V45.1228C15.9276 45.4284 13.2355 44.688 11.0908 43.0561C8.94606 41.4242 7.51461 39.0269 7.09521 36.3647H8.79517C10.2302 41.2727 13.5162 43.5857 18.6052 43.4467V43.4448Z" fill="#3A2ADF" stroke="#3A2ADF"/>
</g>
</svg>
