<svg width="46" height="43" viewBox="0 0 46 43" fill="none" xmlns="http://www.w3.org/2000/svg">
<path d="M6.75704 16.7276C5.98032 14.6256 5.88964 12.3315 6.49802 10.1748C7.10641 8.01813 8.38256 6.10967 10.1433 4.72349C11.8014 3.39147 13.8333 2.6091 15.9566 2.48511C18.0798 2.36112 20.189 2.90168 21.9909 4.03164C26.6419 7.0099 27.9134 11.3548 26.5002 16.645L28.6986 16.6484C31.3964 16.6476 34.0935 16.6459 36.7898 16.6433C37.2346 16.5938 37.6848 16.6443 38.1074 16.7913C38.5301 16.9383 38.9146 17.178 39.2326 17.4928C39.5507 17.8076 39.7943 18.1895 39.9457 18.6107C40.097 19.0318 40.1521 19.4815 40.1072 19.9267C40.1112 23.7403 40.1081 27.5533 40.0978 31.3658C40.1195 31.7808 40.0532 32.1956 39.9033 32.5831C39.7534 32.9706 39.5233 33.3221 39.2281 33.6144C38.9328 33.9068 38.5791 34.1334 38.1902 34.2795C37.8012 34.4256 37.3857 34.4879 36.971 34.4622L7.61335 34.4768C7.20637 34.4989 6.79927 34.4358 6.41806 34.2916C6.03685 34.1474 5.68991 33.9252 5.39946 33.6393C5.10901 33.3533 4.88146 33.0099 4.7313 32.631C4.58113 32.2521 4.5117 31.846 4.52742 31.4388C4.51239 27.5325 4.51448 23.6267 4.53372 19.7213C4.50912 19.0436 4.71618 18.3777 5.12073 17.8334C5.52528 17.2891 6.10321 16.8989 6.75925 16.7271L6.75704 16.7276ZM6.05607 19.1489C6.03847 19.4424 6.01618 19.6415 6.01546 19.8411C6.00863 23.6255 6.00342 27.4076 5.9999 31.1874C5.95465 31.4333 5.9697 31.6866 6.04378 31.9254C6.11787 32.1642 6.2488 32.3815 6.42529 32.5586C6.60177 32.7357 6.81854 32.8674 7.05708 32.9423C7.29562 33.0173 7.54882 33.0332 7.79489 32.9889L36.9656 32.9841C37.1905 33.006 37.4176 32.9774 37.63 32.9001C37.8425 32.8229 38.0349 32.6991 38.1933 32.5379C38.3517 32.3766 38.472 32.182 38.5455 31.9682C38.6189 31.7544 38.6435 31.5269 38.6176 31.3024C38.6233 27.4734 38.6253 23.6449 38.6239 19.8168C38.6517 19.5884 38.6272 19.3567 38.5519 19.1392C38.4767 18.9217 38.3528 18.7243 38.1897 18.5619C38.0267 18.3996 37.8287 18.2766 37.6109 18.2023C37.3931 18.128 37.1612 18.1045 36.9329 18.1334C33.3733 18.1326 29.8127 18.1389 26.2538 18.1238C26.0904 18.1105 25.9267 18.1464 25.7838 18.227C25.641 18.3075 25.5256 18.429 25.4524 18.5758C24.5153 20.0738 23.2145 21.3104 21.671 22.1704C20.1275 23.0305 18.3915 23.486 16.6246 23.4947C14.8576 23.5034 13.1173 23.0649 11.5654 22.22C10.0135 21.3751 8.70061 20.1514 7.74891 18.6626C7.37605 18.076 7.10337 18.0195 6.57118 18.4866C6.37636 18.6891 6.203 18.9112 6.05387 19.1494L6.05607 19.1489ZM7.89757 10.6933C7.44318 12.4117 7.50816 14.2263 8.08431 15.9078C8.66045 17.5894 9.72189 19.0625 11.1347 20.1411C12.5474 21.2198 14.2482 21.8557 16.0221 21.9685C17.796 22.0813 19.5636 21.6659 21.1016 20.7748C22.6396 19.8838 23.8791 18.557 24.6636 16.962C25.448 15.3669 25.7423 13.5752 25.5092 11.8131C25.2761 10.0509 24.5261 8.39738 23.3539 7.06119C22.1817 5.725 20.6398 4.76612 18.923 4.3056C17.7797 3.99866 16.5871 3.92049 15.4135 4.0756C14.24 4.23071 13.1086 4.61602 12.0843 5.20945C11.0601 5.80288 10.163 6.5927 9.44478 7.53365C8.72652 8.4746 8.20113 9.54814 7.89877 10.6926L7.89757 10.6933Z" fill="#3A2ADF"/>
<path d="M36.5736 23.4007C36.5032 23.7116 36.3316 23.9902 36.0857 24.193C35.8398 24.3958 35.5336 24.5113 35.215 24.5212C32.8426 24.5389 30.4701 24.5399 28.0976 24.5244C27.7365 24.5181 27.3913 24.3748 27.1318 24.1235C26.8724 23.8723 26.7181 23.5319 26.7001 23.1712C26.6636 22.617 26.6615 22.0611 26.6939 21.5066C26.696 21.3117 26.7375 21.1192 26.8159 20.9407C26.8943 20.7622 27.008 20.6014 27.1502 20.468C27.2924 20.3346 27.4601 20.2314 27.6432 20.1645C27.8263 20.0976 28.0211 20.0685 28.2158 20.0788C30.5109 20.0688 32.8063 20.0695 35.1019 20.081C35.3034 20.0722 35.5045 20.1052 35.6927 20.1778C35.8809 20.2504 36.052 20.3612 36.1954 20.503C36.3388 20.6449 36.4513 20.8149 36.5259 21.0023C36.6005 21.1897 36.6355 21.3905 36.6289 21.5921C36.6404 22.1129 36.623 22.6415 36.6131 23.1648C36.6069 23.2438 36.5939 23.3221 36.5742 23.3988L36.5736 23.4007ZM28.1681 23.045L35.1378 23.0406C35.1359 22.5223 35.1359 22.0626 35.1348 21.5612L28.1722 21.5582C28.1709 22.061 28.17 22.5319 28.1681 23.0409L28.1681 23.045Z" fill="#3A2ADF"/>
<path d="M16.1351 14.2791L12.7309 16.2511C12.5974 16.3282 12.4665 16.4111 12.3277 16.4806C12.2424 16.5341 12.1471 16.5697 12.0476 16.5855C11.9481 16.6012 11.8465 16.5967 11.7488 16.5721C11.6511 16.5476 11.5594 16.5035 11.4792 16.4426C11.3989 16.3817 11.3319 16.3053 11.282 16.2178C11.2301 16.1305 11.1972 16.0332 11.1855 15.9323C11.1738 15.8314 11.1835 15.7292 11.2139 15.6324C11.2444 15.5355 11.295 15.4461 11.3623 15.3701C11.4297 15.2941 11.5123 15.2332 11.6048 15.1912C12.6289 14.5847 13.6596 13.9923 14.6936 13.4028C14.9188 13.2737 15.1663 13.1847 15.4989 13.0368C15.08 12.3519 14.7212 11.7784 14.3788 11.1978C13.9247 10.4251 13.4769 9.6493 13.0355 8.87034C12.9771 8.78563 12.937 8.68971 12.9177 8.58868C12.8983 8.48765 12.9002 8.38371 12.9231 8.28342C12.946 8.18313 12.9894 8.08869 13.0507 8.00608C13.112 7.92346 13.1898 7.85446 13.2791 7.80347C13.3685 7.75247 13.4674 7.7206 13.5697 7.70983C13.672 7.69907 13.7755 7.70965 13.8735 7.74093C13.9715 7.77221 14.0619 7.82349 14.139 7.89154C14.2162 7.95959 14.2783 8.04292 14.3216 8.13625C15.107 9.48582 15.875 10.839 16.68 12.2352C16.8445 12.1468 16.9899 12.0719 17.1327 11.9911C18.3378 11.2964 19.5385 10.5953 20.7455 9.90517C20.8395 9.83026 20.95 9.7788 21.0679 9.7551C21.1858 9.7314 21.3076 9.73612 21.4233 9.76886C21.539 9.8016 21.6452 9.86141 21.7332 9.94337C21.8212 10.0253 21.8884 10.1271 21.9292 10.2402C21.9868 10.427 21.9722 10.6286 21.8882 10.8051C21.8043 10.9816 21.6572 11.1202 21.4759 11.1934C20.288 11.8855 19.0954 12.5722 17.9061 13.2618C17.7615 13.3453 17.6224 13.4353 17.4354 13.5498C17.8881 14.3329 18.328 15.0907 18.7663 15.8502C19.0364 16.3181 19.3099 16.7849 19.5745 17.2576C19.6416 17.3428 19.6902 17.4411 19.7173 17.5461C19.7443 17.6511 19.7492 17.7606 19.7316 17.8676C19.7141 17.9746 19.6744 18.0768 19.6152 18.1676C19.5559 18.2584 19.4784 18.3359 19.3876 18.3952C18.9912 18.6337 18.569 18.4863 18.2793 17.9831C17.6415 16.8864 17.0133 15.7882 16.3799 14.6906C16.3092 14.5681 16.2357 14.4562 16.1316 14.2844L16.1351 14.2791Z" fill="#3A2ADF"/>
</svg>
