<svg width="19" height="19" viewBox="0 0 19 19" fill="none" xmlns="http://www.w3.org/2000/svg">
<path d="M10.3926 0.416371C10.2817 0.285704 10.1445 0.180877 9.99024 0.109029C9.836 0.0371813 9.66837 0 9.49875 0C9.32913 0 9.1615 0.0371813 9.00727 0.109029C8.85303 0.180877 8.7158 0.285704 8.6049 0.416371L0 10.503H3.56042V17.8143C3.56042 18.1288 3.68313 18.4304 3.90153 18.6527C4.11994 18.8751 4.41617 19 4.72504 19H14.2716C14.5805 19 14.8767 18.8751 15.0951 18.6527C15.3135 18.4304 15.4362 18.1288 15.4362 17.8143V10.503H19L10.3926 0.416371ZM11.1804 18.3352H7.81712V14.6935C7.8269 14.246 8.00836 13.8202 8.32267 13.5073C8.63697 13.1944 9.05912 13.0191 9.49875 13.0191C9.93838 13.0191 10.3605 13.1944 10.6748 13.5073C10.9891 13.8202 11.1706 14.246 11.1804 14.6935V18.3352Z" fill="white"/>
</svg>
