<svg width="19" height="19" viewBox="0 0 19 19" fill="none" xmlns="http://www.w3.org/2000/svg">
<path d="M1.60983 18.9997C1.39899 19.0004 1.19024 18.9586 0.996457 18.8769C0.80267 18.7952 0.62794 18.6754 0.483039 18.5247C0.329919 18.3822 0.208079 18.2104 0.125009 18.0199C0.0419388 17.8293 -0.000602223 17.6241 6.4402e-06 17.4167V1.58322C-0.000602223 1.3759 0.0419388 1.17069 0.125009 0.980139C0.208079 0.789587 0.329919 0.617727 0.483039 0.475209C0.627972 0.32464 0.802704 0.20487 0.996484 0.123183C1.19026 0.0414972 1.39899 -0.000374846 1.60983 0.000223676H8.83064C8.93718 -0.00231323 9.04313 0.0167541 9.14187 0.0561916C9.24062 0.0956291 9.33005 0.154627 9.40462 0.229501C9.48035 0.303592 9.53993 0.392078 9.57971 0.489572C9.61949 0.587065 9.63864 0.691532 9.63599 0.796547C9.63898 0.900958 9.61997 1.00483 9.58015 1.10167C9.54034 1.1985 9.48057 1.28617 9.40462 1.35919C9.32932 1.43275 9.23964 1.49055 9.14098 1.52906C9.04232 1.56757 8.93674 1.58598 8.83064 1.58322H1.61159V17.4167H8.83064C8.93719 17.4141 9.04314 17.4332 9.1419 17.4726C9.24065 17.512 9.33008 17.5711 9.40462 17.646C9.48035 17.7201 9.53993 17.8086 9.57971 17.9061C9.61949 18.0036 9.63864 18.108 9.63599 18.213C9.63898 18.3174 9.61997 18.4213 9.58015 18.5182C9.54034 18.615 9.48057 18.7027 9.40462 18.7757C9.32932 18.8493 9.23964 18.9071 9.14098 18.9456C9.04232 18.9841 8.93674 19.0025 8.83064 18.9997H1.60983ZM16.236 10.2911H7.24554C7.13899 10.2936 7.03305 10.2746 6.93431 10.2351C6.83556 10.1957 6.74612 10.1367 6.67155 10.0618C6.59582 9.98774 6.53624 9.89925 6.49646 9.80176C6.45668 9.70427 6.43753 9.5998 6.44018 9.49478C6.4372 9.39037 6.45621 9.2865 6.49602 9.18966C6.53584 9.09283 6.5956 9.00511 6.67155 8.93208C6.74685 8.85852 6.83655 8.80078 6.9352 8.76227C7.03386 8.72376 7.13943 8.7053 7.24554 8.70805H16.1821L14.008 6.5702C13.9317 6.49949 13.8717 6.41334 13.8324 6.3177C13.7931 6.22207 13.7753 6.11923 13.7802 6.01619C13.7889 5.80594 13.8804 5.60725 14.0354 5.46218C14.1099 5.38591 14.1995 5.32544 14.2987 5.28452C14.3979 5.2436 14.5045 5.22311 14.612 5.22426C14.7196 5.22311 14.8262 5.2436 14.9254 5.28452C15.0246 5.32544 15.1142 5.38591 15.1887 5.46218L18.758 8.97205C18.8347 9.04327 18.8957 9.12915 18.9373 9.22443C18.9789 9.31971 19.0002 9.42236 19 9.52605C19.0003 9.62975 18.979 9.73239 18.9374 9.82768C18.8957 9.92296 18.8347 10.0089 18.758 10.0801L15.2152 13.5638C15.1441 13.6393 15.0571 13.6986 14.9602 13.7373C14.8633 13.776 14.7589 13.7933 14.6544 13.7879C14.4369 13.7787 14.231 13.689 14.0778 13.537C14.003 13.4622 13.944 13.3736 13.9043 13.2763C13.8646 13.1789 13.8449 13.0748 13.8464 12.9699C13.8451 12.8642 13.8658 12.7594 13.9073 12.6618C13.9487 12.5643 14.0101 12.4762 14.0875 12.4029L16.236 10.2911Z" fill="white"/>
</svg>
