<svg width="20" height="20" viewBox="0 0 20 20" fill="none" xmlns="http://www.w3.org/2000/svg">
<path d="M2.23494 19.697C2.02445 19.6977 1.81604 19.6553 1.62257 19.5724C1.42909 19.4895 1.25463 19.3679 1.10994 19.215C0.957115 19.0703 0.835515 18.8958 0.752624 18.7023C0.669733 18.5088 0.6273 18.3005 0.627937 18.09V2.01395C0.6273 1.80347 0.669733 1.59512 0.752624 1.40165C0.835515 1.20818 0.957115 1.03368 1.10994 0.888951C1.25467 0.736127 1.42913 0.614543 1.6226 0.531652C1.81607 0.44876 2.02446 0.40632 2.23494 0.406957H9.44293C9.54931 0.404432 9.65509 0.423819 9.75366 0.463903C9.85223 0.503986 9.94151 0.56394 10.0159 0.639989C10.0916 0.715224 10.1511 0.805106 10.1909 0.904149C10.2306 1.00319 10.2497 1.1093 10.2469 1.21598C10.2499 1.32194 10.2309 1.42735 10.1911 1.52561C10.1513 1.62387 10.0917 1.71284 10.0159 1.78696C9.94081 1.86173 9.85128 1.9205 9.75279 1.95969C9.6543 1.99888 9.54889 2.01769 9.44293 2.01499H2.23494V18.091H9.44293C9.54925 18.0883 9.65499 18.1075 9.75357 18.1474C9.85215 18.1873 9.94146 18.2471 10.0159 18.323C10.0916 18.3982 10.1511 18.4882 10.1908 18.5872C10.2305 18.6862 10.2496 18.7923 10.2469 18.899C10.2499 19.0049 10.2309 19.1103 10.1911 19.2086C10.1513 19.3069 10.0917 19.3959 10.0159 19.47C9.94081 19.5448 9.85128 19.6035 9.75279 19.6427C9.6543 19.6819 9.54889 19.7007 9.44293 19.698L2.23494 19.697ZM16.8349 10.855H7.85894C7.75263 10.8576 7.64691 10.8384 7.54834 10.7985C7.44977 10.7586 7.36045 10.6988 7.28593 10.623C7.2103 10.5477 7.15082 10.4578 7.1111 10.3588C7.07138 10.2598 7.05227 10.1536 7.05494 10.047C7.05201 9.94101 7.07102 9.8356 7.11077 9.73734C7.15052 9.63908 7.21016 9.5501 7.28593 9.47599C7.36107 9.40122 7.45059 9.34245 7.54908 9.30326C7.64757 9.26407 7.75298 9.24526 7.85894 9.24796H16.7809L14.6109 7.07798C14.5345 7.00617 14.4746 6.91863 14.4352 6.82145C14.3959 6.72426 14.378 6.61973 14.3829 6.51499C14.3915 6.3013 14.4829 6.09935 14.6379 5.952C14.7124 5.87461 14.8019 5.81327 14.901 5.77182C15.0001 5.73037 15.1066 5.70966 15.2139 5.71097C15.3213 5.70972 15.4278 5.73044 15.5269 5.77189C15.6259 5.81333 15.7154 5.87466 15.7899 5.952L19.3539 9.51499C19.4304 9.58743 19.4912 9.67476 19.5327 9.77158C19.5741 9.8684 19.5953 9.97266 19.5949 10.078C19.5954 10.1833 19.5742 10.2876 19.5327 10.3844C19.4913 10.4813 19.4304 10.5686 19.3539 10.641L15.8169 14.178C15.746 14.2547 15.6591 14.315 15.5623 14.3544C15.4656 14.3938 15.3613 14.4114 15.2569 14.406C15.0397 14.3966 14.834 14.3055 14.6809 14.151C14.606 14.0752 14.547 13.9852 14.5073 13.8863C14.4676 13.7874 14.4481 13.6815 14.4499 13.575C14.4486 13.4676 14.4693 13.3611 14.5108 13.262C14.5522 13.1629 14.6135 13.0735 14.6909 12.999L16.8349 10.855Z" fill="#B1ADDE"/>
</svg>
