<svg width="14" height="19" viewBox="0 0 14 19" fill="none" xmlns="http://www.w3.org/2000/svg">
<path d="M9.35105 7.8759C9.92067 7.5116 10.3856 7.00526 10.7001 6.4067C11.0147 5.80815 11.1679 5.13802 11.1448 4.46226C11.1217 3.7865 10.923 3.1284 10.5683 2.55275C10.2136 1.97709 9.71512 1.50371 9.12193 1.1792C8.52874 0.854682 7.86127 0.690229 7.18521 0.702007C6.50916 0.713785 5.84783 0.901385 5.2663 1.24636C4.68477 1.59134 4.20309 2.08181 3.86867 2.66948C3.53425 3.25714 3.35861 3.92174 3.35904 4.5979C3.35626 5.25213 3.52003 5.89631 3.83493 6.46978C4.14984 7.04325 4.60551 7.52714 5.15905 7.8759C3.91806 7.98677 2.76375 8.55899 1.92413 9.47952C1.0845 10.4001 0.620601 11.602 0.624042 12.8479V16.9639L0.915043 17.0549C3.11067 17.7624 5.40133 18.1309 7.70805 18.1479C9.73876 18.2176 11.7598 17.8382 13.627 17.0369L13.882 16.9099H13.9V12.8669C13.8973 11.6227 13.4313 10.4242 12.5929 9.50496C11.7545 8.58573 10.6037 8.01174 9.36505 7.89491L9.35105 7.8759Z" fill="#CCCBDB"/>
</svg>
