<svg width="19" height="18" viewBox="0 0 19 18" fill="none" xmlns="http://www.w3.org/2000/svg">
<path d="M7.38582 17.9651L6.94582 15.2651C6.6419 15.1536 6.34759 15.0175 6.06582 14.8581C5.78057 14.7019 5.50835 14.523 5.25182 14.3231L2.65182 15.4791L0.611816 11.9691L2.98682 10.2771C2.95522 10.1314 2.93681 9.98312 2.93182 9.83411C2.92448 9.67011 2.92081 9.52375 2.92081 9.39508C2.92081 9.26641 2.92448 9.12012 2.93182 8.95612C2.93702 8.80843 2.95543 8.66149 2.98682 8.51709L0.611816 6.83411L2.65681 3.32208L5.25681 4.47809C5.51331 4.27814 5.78553 4.09925 6.07082 3.94312C6.34991 3.78442 6.64485 3.65538 6.95081 3.55811L7.39082 0.838135H11.4318L11.8718 3.53809C12.1775 3.65119 12.4752 3.78485 12.7628 3.93811C13.0517 4.08513 13.3206 4.26865 13.5628 4.48413L16.1628 3.32812L18.2058 6.83411L15.8308 8.48309C15.8613 8.63507 15.8797 8.78922 15.8858 8.94409C15.8932 9.10809 15.8968 9.26145 15.8968 9.40411C15.8968 9.54678 15.8932 9.69679 15.8858 9.85413C15.8793 10.0053 15.8609 10.1557 15.8308 10.3041L18.2058 11.9741L16.1608 15.4861L13.5608 14.3301C13.3065 14.5295 13.0392 14.7119 12.7608 14.8761C12.4818 15.0464 12.1825 15.1808 11.8698 15.2761L11.4298 17.9761L7.38582 17.9651ZM9.40881 12.1831C9.78336 12.19 10.1555 12.1215 10.503 11.9816C10.8505 11.8418 11.1664 11.6335 11.4318 11.3691C11.7006 11.117 11.9137 10.8116 12.0577 10.4724C12.2016 10.1331 12.2732 9.76757 12.2678 9.39911C12.2732 9.03065 12.2016 8.66509 12.0577 8.32587C11.9137 7.98665 11.7006 7.6812 11.4318 7.42908C11.1664 7.16466 10.8506 6.95637 10.503 6.81653C10.1555 6.67669 9.78337 6.60819 9.40881 6.61511C9.03426 6.60819 8.66213 6.67669 8.31459 6.81653C7.96705 6.95637 7.6512 7.16466 7.38582 7.42908C7.11707 7.6812 6.90389 7.98665 6.75994 8.32587C6.61599 8.66509 6.54442 9.03065 6.54982 9.39911C6.54442 9.76757 6.61599 10.1331 6.75994 10.4724C6.90389 10.8116 7.11707 11.117 7.38582 11.3691C7.65158 11.6338 7.96793 11.8423 8.31601 11.9822C8.66409 12.122 9.03677 12.1904 9.41182 12.1831H9.40881ZM9.40881 10.8981C9.2071 10.902 9.0067 10.865 8.81958 10.7896C8.63246 10.7142 8.46248 10.6018 8.31982 10.4591C8.17501 10.3235 8.06009 10.1592 7.98243 9.97668C7.90477 9.79416 7.86608 9.59745 7.86882 9.39911C7.86614 9.20077 7.90486 9.00405 7.98251 8.82153C8.06017 8.63901 8.17505 8.47471 8.31982 8.33911C8.46248 8.19646 8.63246 8.08404 8.81958 8.00861C9.0067 7.93318 9.2071 7.89626 9.40881 7.90009C9.61053 7.89626 9.81094 7.93318 9.99805 8.00861C10.1852 8.08404 10.3552 8.19646 10.4978 8.33911C10.6426 8.47471 10.7575 8.63901 10.8351 8.82153C10.9128 9.00405 10.9515 9.20077 10.9488 9.39911C10.9516 9.59745 10.9129 9.79416 10.8352 9.97668C10.7575 10.1592 10.6426 10.3235 10.4978 10.4591C10.3556 10.6016 10.1861 10.714 9.99956 10.7896C9.81298 10.8651 9.6131 10.9024 9.41182 10.8991L9.40881 10.8981ZM8.44382 16.6801H10.3788L10.6868 14.2801C11.168 14.1672 11.6309 13.9871 12.0618 13.7451C12.4908 13.505 12.8864 13.2099 13.2388 12.8671L15.5698 13.8521L16.4498 12.3101L14.3788 10.8341C14.4375 10.5914 14.4852 10.3525 14.5218 10.1171C14.5586 9.87957 14.577 9.6395 14.5768 9.39911C14.577 9.15943 14.5623 8.91999 14.5328 8.68213C14.5018 8.43921 14.4503 8.19931 14.3788 7.96509L16.4458 6.48712L15.5658 4.94513L13.2348 5.93011C12.9029 5.56328 12.5172 5.24902 12.0908 4.99811C11.6581 4.7456 11.1795 4.58176 10.6828 4.51611L10.3748 2.11609H8.44082L8.13282 4.51611C7.64197 4.61256 7.16947 4.78602 6.73282 5.03009C6.30433 5.26966 5.91486 5.57317 5.57782 5.93011L3.24682 4.94513L2.36681 6.48712L4.43382 7.96509C4.37515 8.20775 4.32748 8.4468 4.29082 8.68213C4.25404 8.91936 4.23565 9.15905 4.23582 9.39911C4.2356 9.6395 4.25399 9.87957 4.29082 10.1171C4.32748 10.3525 4.37515 10.5914 4.43382 10.8341L2.36681 12.3121L3.24682 13.8541L5.57782 12.8691C5.93018 13.2118 6.32586 13.5071 6.75481 13.7471C7.18575 13.9891 7.64863 14.1692 8.12981 14.2821L8.44382 16.6801Z" fill="white"/>
</svg>
