<svg width="20" height="20" viewBox="0 0 20 20" fill="none" xmlns="http://www.w3.org/2000/svg">
<path d="M7.65701 14.5823L10.1267 12.1782L12.5964 14.5823L11.6461 10.7824L13.9733 8.35267H11.1234L10.13 4.72827L9.13213 8.34995H6.27907L8.60623 10.7798L7.65701 14.5823ZM2.05239 19.2732C1.8646 19.2774 1.67812 19.2334 1.50445 19.1441C1.33078 19.0547 1.17363 18.9218 1.04269 18.7534C0.908049 18.5898 0.801678 18.3933 0.730169 18.1762C0.658659 17.9591 0.623527 17.726 0.626935 17.4913V13.5767C0.623964 13.3902 0.669855 13.2077 0.757604 13.0569C0.843038 12.9099 0.96369 12.8008 1.10209 12.7452C1.58471 12.536 1.99277 12.1206 2.25433 11.5721C2.52557 11.0342 2.66968 10.4113 2.67008 9.77545C2.66605 9.14529 2.52213 8.52885 2.25433 7.99493C1.99549 7.44028 1.58696 7.01919 1.10209 6.80712C0.963724 6.75145 0.843091 6.64223 0.757604 6.49528C0.669855 6.3445 0.623964 6.16198 0.626935 5.97556V2.0609C0.623591 1.82619 0.658753 1.59316 0.730259 1.37608C0.801765 1.15901 0.9081 0.962499 1.04269 0.798779C1.1733 0.629558 1.3303 0.495689 1.50397 0.405368C1.67765 0.315047 1.8643 0.270227 2.05239 0.27371H18.201C18.3888 0.269529 18.5753 0.313514 18.7489 0.402897C18.9226 0.49228 19.0797 0.625179 19.2107 0.793423C19.3453 0.957143 19.4516 1.15357 19.5232 1.37064C19.5947 1.58772 19.6298 1.82083 19.6265 2.05555V5.97012C19.6295 6.15654 19.5836 6.33906 19.4958 6.48984C19.4103 6.63679 19.2897 6.74601 19.1513 6.80168C18.6665 7.01376 18.2579 7.43493 17.9991 7.98957C17.7312 8.52347 17.5873 9.13984 17.5833 9.77001C17.5837 10.4059 17.7279 11.0288 17.9991 11.5668C18.2606 12.1152 18.6687 12.5306 19.1513 12.7397C19.2897 12.7953 19.4104 12.9046 19.4958 13.0516C19.5836 13.2024 19.6295 13.3849 19.6265 13.5713V17.4859C19.6299 17.7206 19.5948 17.9538 19.5232 18.1709C19.4517 18.388 19.3454 18.5843 19.2107 18.748C19.0798 18.9163 18.9226 19.0493 18.749 19.1387C18.5753 19.2281 18.3888 19.272 18.201 19.2677L2.05239 19.2732ZM2.05239 17.4926H18.201V14.253C17.6063 13.7477 17.1042 13.0902 16.7281 12.324C16.3492 11.5574 16.1516 10.6725 16.1579 9.77141C16.1516 8.87035 16.3492 7.98544 16.7281 7.21882C17.1042 6.45265 17.6063 5.79512 18.201 5.28983V2.05011H2.05239V5.28983C2.6563 5.78624 3.16366 6.44536 3.53723 7.21882C3.90865 7.98875 4.10192 8.87237 4.09553 9.77141C4.10192 10.6705 3.90865 11.5541 3.53723 12.324C3.16366 13.0975 2.6563 13.7566 2.05239 14.253V17.4926Z" fill="white"/>
</svg>
