<svg width="63" height="64" viewBox="0 0 63 64" fill="none" xmlns="http://www.w3.org/2000/svg">
<g id="Group 252">
<g id="Group" filter="url(#filter0_d_352_312)">
<path id="Ellipse 152" d="M28.5 54.75C42.5833 54.75 54 43.3333 54 29.25C54 15.1667 42.5833 3.75 28.5 3.75C14.4167 3.75 3 15.1667 3 29.25C3 43.3333 14.4167 54.75 28.5 54.75Z" fill="#3A2ADF" fill-opacity="0.4"/>
</g>
<g id="Clip path group">
<mask id="mask0_352_312" style="mask-type:luminance" maskUnits="userSpaceOnUse" x="15" y="13" width="29" height="29">
<g id="clip-path">
<path id="Rectangle 320" d="M43.999 13.75H15.999V41.75H43.999V13.75Z" fill="white"/>
</g>
</mask>
<g mask="url(#mask0_352_312)">
<g id="Group 212">
<path id="Path 978" fill-rule="evenodd" clip-rule="evenodd" d="M35.5029 29.0659C36.3036 29.5244 36.9741 30.1795 37.451 30.9694C37.9278 31.7593 38.1952 32.6578 38.2279 33.5799V37.0799H41.7369C42.0466 37.0797 42.3436 36.9567 42.5629 36.738C42.7822 36.5193 42.9059 36.2226 42.9069 35.9129V33.5799C42.9059 31.0369 38.7299 29.5319 35.5029 29.0659Z" fill="white"/>
<path id="Path 979" d="M26.532 27.747C27.4543 27.7447 28.3553 27.469 29.121 26.9548C29.8868 26.4407 30.4829 25.7111 30.8343 24.8583C31.1856 24.0055 31.2763 23.0677 31.0949 22.1634C30.9135 21.2591 30.4682 20.4288 29.8151 19.7774C29.1621 19.1261 28.3307 18.6829 27.4259 18.5038C26.5211 18.3248 25.5835 18.4179 24.7316 18.7714C23.8797 19.1249 23.1517 19.7229 22.6395 20.49C22.1274 21.257 21.854 22.1587 21.854 23.081C21.8548 23.6946 21.9764 24.3019 22.2119 24.8685C22.4475 25.435 22.7923 25.9496 23.2266 26.3829C23.661 26.8162 24.1765 27.1596 24.7437 27.3937C25.3108 27.6278 25.9185 27.7478 26.532 27.747Z" fill="white"/>
<path id="Path 980" fill-rule="evenodd" clip-rule="evenodd" d="M33.5448 27.747C34.7823 27.747 35.9691 27.2554 36.8441 26.3804C37.7192 25.5054 38.2108 24.3185 38.2108 23.081C38.2108 21.8435 37.7192 20.6567 36.8441 19.7817C35.9691 18.9066 34.7823 18.415 33.5448 18.415C33.0144 18.4235 32.4889 18.5181 31.9888 18.695C32.9951 19.9353 33.5444 21.4839 33.5444 23.081C33.5444 24.6782 32.9951 26.2268 31.9888 27.467C32.4889 27.644 33.0144 27.7385 33.5448 27.747Z" fill="white"/>
<path id="Path 981" fill-rule="evenodd" clip-rule="evenodd" d="M26.5308 28.9131C23.4078 28.9131 17.1748 30.4761 17.1748 33.5791V35.9121C17.1761 36.2216 17.2999 36.518 17.5192 36.7365C17.7384 36.955 18.0353 37.0778 18.3448 37.0781H34.7178C35.0273 37.0778 35.3242 36.955 35.5434 36.7365C35.7627 36.518 35.8865 36.2216 35.8878 35.9121V33.5791C35.8878 30.4761 29.6538 28.9131 26.5308 28.9131Z" fill="white"/>
</g>
</g>
</g>
</g>
<defs>
<filter id="filter0_d_352_312" x="0" y="0.75" width="63" height="63" filterUnits="userSpaceOnUse" color-interpolation-filters="sRGB">
<feFlood flood-opacity="0" result="BackgroundImageFix"/>
<feColorMatrix in="SourceAlpha" type="matrix" values="0 0 0 0 0 0 0 0 0 0 0 0 0 0 0 0 0 0 127 0" result="hardAlpha"/>
<feOffset dx="3" dy="3"/>
<feGaussianBlur stdDeviation="3"/>
<feColorMatrix type="matrix" values="0 0 0 0 0.647059 0 0 0 0 0.643137 0 0 0 0 0.678431 0 0 0 1 0"/>
<feBlend mode="normal" in2="BackgroundImageFix" result="effect1_dropShadow_352_312"/>
<feBlend mode="normal" in="SourceGraphic" in2="effect1_dropShadow_352_312" result="shape"/>
</filter>
</defs>
</svg>
