<svg width="16" height="16" viewBox="0 0 16 16" fill="none" xmlns="http://www.w3.org/2000/svg">
<path id="Path 637" d="M8.22875 15.7331C-0.597252 15.6811 0.537765 16.7811 0.502765 8.07611C0.468765 -0.523894 -0.348227 0.359126 8.27977 0.359126C16.6418 0.359126 15.9198 -0.473918 15.8858 7.93908C15.8518 16.5931 16.9427 15.7071 8.22875 15.7331ZM10.8588 11.3591C11.2108 11.2391 11.5588 11.1271 11.9068 11.0071C11.4688 8.62608 11.3738 6.08308 10.3858 3.96008C10.1018 3.35008 6.04577 3.43611 5.79677 4.05511C4.91177 6.20311 4.93775 8.73012 4.49675 12.0131C6.37875 10.7071 7.28976 10.0711 8.22676 9.42608C9.19176 10.1431 10.0248 10.7491 10.8588 11.3591Z" fill="#008759"/>
</svg>
