<svg width="19" height="15" viewBox="0 0 19 15" fill="none" xmlns="http://www.w3.org/2000/svg">
<path d="M7.13692 10.8741L9.42392 9.0931L11.7109 10.8741L10.8309 8.0591L12.9859 6.25911H10.3469L9.42692 3.57412L8.50292 6.2571H5.86092L8.01592 8.05715L7.13692 10.8741ZM1.94692 14.3491C1.77303 14.3523 1.60034 14.3197 1.43952 14.2535C1.2787 14.1873 1.13317 14.0888 1.01192 13.9641C0.887236 13.8429 0.788734 13.6973 0.722515 13.5365C0.656295 13.3757 0.623762 13.203 0.626919 13.0291V10.1291C0.624167 9.99101 0.666663 9.85579 0.747921 9.7441C0.827034 9.63519 0.938761 9.55432 1.06692 9.51314C1.51384 9.35819 1.89171 9.05042 2.13392 8.64412C2.38509 8.24559 2.51855 7.78421 2.51892 7.31313C2.51519 6.8463 2.38191 6.38964 2.13392 5.9941C1.89423 5.58321 1.51592 5.27126 1.06692 5.11415C0.938792 5.07291 0.827084 4.992 0.747921 4.88314C0.666663 4.77144 0.624167 4.63622 0.626919 4.49813V1.5981C0.623821 1.42422 0.656383 1.25159 0.722599 1.09078C0.788815 0.929967 0.887284 0.78439 1.01192 0.663105C1.13286 0.537744 1.27825 0.438573 1.43908 0.371662C1.5999 0.304751 1.77275 0.271547 1.94692 0.274128H16.9009C17.0748 0.27103 17.2475 0.303615 17.4083 0.369831C17.5691 0.436047 17.7146 0.5345 17.8359 0.659137C17.9606 0.780423 18.059 0.925939 18.1252 1.08675C18.1914 1.24756 18.224 1.42025 18.2209 1.59413V4.4941C18.2237 4.6322 18.1812 4.76741 18.0999 4.87911C18.0208 4.98797 17.909 5.06888 17.7809 5.11013C17.3319 5.26723 16.9536 5.57924 16.7139 5.99013C16.4659 6.38565 16.3326 6.84226 16.3289 7.3091C16.3293 7.78018 16.4627 8.24162 16.7139 8.64016C16.9561 9.04646 17.334 9.35416 17.7809 9.50911C17.9091 9.55029 18.0208 9.63122 18.0999 9.74013C18.1812 9.85183 18.2237 9.98704 18.2209 10.1251V13.0251C18.2241 13.199 18.1915 13.3717 18.1253 13.5326C18.0591 13.6934 17.9606 13.8389 17.8359 13.9601C17.7147 14.0848 17.5691 14.1833 17.4083 14.2495C17.2475 14.3158 17.0748 14.3483 16.9009 14.3451L1.94692 14.3491ZM1.94692 13.0301H16.9009V10.6301C16.3502 10.2558 15.8852 9.76871 15.5369 9.20113C15.1861 8.63321 15.0031 7.97765 15.0089 7.31014C15.0031 6.64262 15.1861 5.98707 15.5369 5.41915C15.8852 4.85156 16.3502 4.36445 16.9009 3.99013V1.59011H1.94692V3.99013C2.50616 4.35787 2.97598 4.84616 3.32192 5.41915C3.66586 5.98952 3.84483 6.64412 3.83892 7.31014C3.84483 7.97616 3.66586 8.63076 3.32192 9.20113C2.97598 9.77411 2.50616 10.2624 1.94692 10.6301V13.0301Z" fill="#CCCBDB"/>
</svg>
