<svg width="18" height="18" viewBox="0 0 18 18" fill="none" xmlns="http://www.w3.org/2000/svg">
<g id="Group 249">
<g id="Component 25 &#226;&#128;&#147; 3">
<path id="Ellipse 160" d="M9 18C13.9706 18 18 13.9706 18 9C18 4.02944 13.9706 0 9 0C4.02944 0 0 4.02944 0 9C0 13.9706 4.02944 18 9 18Z" fill="#FE8B01"/>
</g>
<g id="AVTAR-02">
<path id="Path 1502" d="M12.6522 11.1891C12.6277 11.2456 12.5823 11.2906 12.5255 11.3146C12.4687 11.3386 12.4049 11.3398 12.3472 11.3181C12.1472 11.2671 12.0472 11.3601 11.9652 11.5451C11.6843 12.218 11.2513 12.8167 10.7003 13.2943C10.1493 13.7719 9.49519 14.1155 8.78921 14.2981C8.31637 14.4685 7.79999 14.4752 7.3229 14.3171C6.8458 14.159 6.43564 13.8452 6.15821 13.4261C5.42238 12.5048 4.99769 11.3739 4.94521 10.1961C4.93721 9.97806 4.95521 9.76005 4.72521 9.59605C4.64521 9.53905 4.68322 9.31606 4.66822 9.16906L4.73821 9.15005L4.96322 9.28406C4.69682 8.67593 4.55405 8.02088 4.54322 7.35705C4.49919 6.68034 4.69419 6.00966 5.09421 5.46206C5.04842 5.31246 5.04905 5.15249 5.096 5.00325C5.14295 4.85401 5.23402 4.7225 5.35721 4.62606C5.87266 4.07494 6.542 3.69165 7.2782 3.52605C8.41682 3.24539 9.61664 3.35418 10.6862 3.83506C11.4832 4.18647 12.1413 4.79213 12.5574 5.55732C12.9736 6.32251 13.1244 7.20405 12.9862 8.06406C12.9742 8.17506 12.9502 8.28606 12.9382 8.39806C12.9378 8.50498 12.9092 8.60992 12.8553 8.70227C12.8014 8.79462 12.7241 8.87112 12.6312 8.92406C12.3602 9.07006 12.4542 9.32406 12.4752 9.57406C12.6892 9.34706 12.8642 9.06106 13.2342 9.09106C13.3182 9.24306 13.2042 9.30706 13.1112 9.35406C12.9585 9.4364 12.8244 9.54931 12.7172 9.68574C12.61 9.82217 12.5321 9.9792 12.4882 10.1471C12.4072 10.3941 12.2982 10.6311 12.2212 10.8791C12.1212 11.1971 12.2212 11.2961 12.5542 11.2231C12.5912 11.2151 12.6272 11.2051 12.6632 11.1951L12.6582 11.1901L12.6522 11.1891ZM5.45922 6.41605L5.46421 6.41106C5.43321 6.61906 5.40022 6.82705 5.36422 7.08205C5.45522 7.02705 5.50021 6.99805 5.54621 6.97205C5.73475 6.86576 5.94604 6.80629 6.16234 6.79864C6.37865 6.79098 6.59362 6.83536 6.78921 6.92805C6.85721 6.95605 6.88922 7.08006 6.93322 7.16006C6.86484 7.21017 6.78792 7.24744 6.70621 7.27006C6.59443 7.26637 6.48325 7.25197 6.37421 7.22706C5.69221 7.14506 5.36822 7.39306 5.28022 8.06206C5.25799 8.1623 5.24526 8.26442 5.24221 8.36706C5.25521 8.56706 5.19821 8.79506 5.37621 8.99506C5.57198 8.75549 5.84795 8.595 6.15299 8.54333C6.45803 8.49167 6.77146 8.55232 7.03521 8.71406L7.31121 8.50506C7.33721 8.81606 7.35922 9.07805 7.37922 9.32005C6.93322 9.52005 6.57922 9.83405 6.09922 9.70805C6.02484 9.62466 5.97521 9.52216 5.95595 9.41209C5.9367 9.30201 5.94856 9.18875 5.99021 9.08506C6.05171 8.9501 6.15564 8.83895 6.28617 8.76854C6.4167 8.69813 6.56666 8.67232 6.71322 8.69505C6.48812 8.641 6.25195 8.65608 6.03556 8.73832C5.81916 8.82056 5.63258 8.96615 5.5002 9.15606C5.42304 9.23802 5.3376 9.31174 5.24522 9.37606C5.26522 9.77006 5.26021 10.2021 5.31821 10.6261C5.37012 10.9574 5.45936 11.2818 5.58422 11.5931C5.62653 11.7161 5.70331 11.8244 5.80543 11.9051C5.90754 11.9858 6.03069 12.0354 6.16021 12.0481C6.27821 11.4481 6.80522 11.3071 7.27322 11.1031C7.2044 11.047 7.14846 10.9768 7.10921 10.8972C7.06997 10.8176 7.04833 10.7305 7.04577 10.6417C7.04321 10.553 7.05978 10.4648 7.09437 10.383C7.12896 10.3013 7.18074 10.228 7.24621 10.1681C7.21621 10.2501 7.19921 10.2911 7.18621 10.3331C7.10321 10.6181 7.20322 10.7951 7.49522 10.8401C7.62984 10.8855 7.77581 10.8845 7.90978 10.8372C8.04376 10.7898 8.15799 10.699 8.23421 10.5791C8.25321 10.5461 8.29822 10.5281 8.33422 10.5011C8.49522 10.8231 8.14521 10.9451 8.11521 11.1701L7.83521 11.2461C8.15886 11.4341 8.53842 11.5021 8.90722 11.4381L8.43221 11.2161C8.68403 11.225 8.92645 11.314 9.12426 11.4701C9.32207 11.6261 9.46497 11.8412 9.53222 12.0841C9.63321 12.0818 9.7337 12.0694 9.83221 12.0471C10.1438 11.9825 10.4357 11.8449 10.684 11.6457C10.9322 11.4465 11.1297 11.1913 11.2602 10.9011C11.4692 10.5405 11.5854 10.1336 11.5982 9.71706C11.5813 9.46734 11.5813 9.21677 11.5982 8.96706C11.6082 8.67806 11.6312 8.39006 11.6492 8.10206L11.6722 8.06306H11.6572C11.6572 8.07806 11.6572 8.09305 11.6572 8.10805C11.6702 7.99305 11.6822 7.87905 11.6952 7.76305C11.6906 7.56147 11.6681 7.3607 11.6282 7.16305C11.5282 6.47805 11.5182 6.44506 10.8212 6.47506C9.90922 6.51306 9.00021 6.61705 8.08921 6.66206C7.53964 6.68911 6.98891 6.6821 6.44021 6.64106C6.10854 6.59248 5.78121 6.51792 5.46122 6.41806L5.45922 6.41605ZM8.02021 12.6411C8.13921 12.7881 8.23222 12.9051 8.32722 13.0201C8.36075 13.0718 8.4068 13.1142 8.46111 13.1434C8.51542 13.1725 8.57621 13.1875 8.63785 13.1869C8.6995 13.1863 8.76 13.1702 8.81373 13.1399C8.86746 13.1097 8.91269 13.0664 8.94521 13.0141C9.09235 12.7415 9.22357 12.4607 9.33822 12.1731C9.26672 12.112 9.17726 12.076 9.08341 12.0704C8.98957 12.0648 8.89646 12.0899 8.81821 12.1421C8.67927 12.211 8.5287 12.2534 8.37421 12.2671C8.05521 12.3041 7.73321 12.3191 7.41221 12.3431C7.74532 12.4243 8.08735 12.4633 8.43021 12.4591L8.02021 12.6411ZM6.40922 12.2031C6.51323 12.4643 6.63346 12.7188 6.76922 12.9651C6.93722 13.2321 7.13721 13.2121 7.31121 12.9481C7.38021 12.8431 7.45421 12.7401 7.52721 12.6361C7.25561 12.5581 7.01533 12.3968 6.84022 12.1751C6.70422 12.0091 6.57422 12.0461 6.40922 12.2031ZM6.31821 8.98006L6.24821 9.08005L6.40821 9.19005C6.42821 9.15305 6.47321 9.09005 6.46421 9.08305C6.4193 9.04454 6.37035 9.01102 6.31821 8.98305V8.98006Z" fill="#3A2ADF"/>
<path id="Path 1503" d="M12.6563 11.194L12.8283 11.03L12.6553 11.193L12.6603 11.198L12.6563 11.194Z" fill="#3A2ADF"/>
<path id="Path 1505" d="M10.8351 9.18315L10.6551 9.14516L10.6091 9.36215C10.4819 9.47737 10.3324 9.56522 10.1698 9.62027C10.0073 9.67532 9.83513 9.69637 9.6641 9.68214C9.59948 9.68335 9.5365 9.66177 9.48621 9.62117C9.43593 9.58057 9.40155 9.52356 9.38911 9.46014C9.3499 9.32894 9.35325 9.1887 9.3987 9.05953C9.44416 8.93035 9.52936 8.81889 9.6421 8.74115C9.7031 8.70015 9.7701 8.66816 9.8581 8.61916C9.74521 8.56269 9.61895 8.53841 9.49317 8.549C9.36739 8.55958 9.24697 8.60462 9.1451 8.67915C8.98045 8.85468 8.83805 9.04981 8.72111 9.26015C8.69735 9.19912 8.68893 9.1332 8.6966 9.06816C8.70427 9.00313 8.72779 8.94097 8.7651 8.88715C8.82026 8.77278 8.90296 8.67391 9.00576 8.59938C9.10856 8.52485 9.22825 8.477 9.3541 8.46014C9.64542 8.41064 9.94493 8.45378 10.2104 8.58348C10.476 8.71319 10.6941 8.92293 10.8341 9.18315H10.8351ZM9.9291 9.03615C9.8551 8.98315 9.81109 8.92915 9.76009 8.92215C9.73209 8.92215 9.6601 8.99315 9.6661 9.02815C9.67286 9.05252 9.68552 9.07484 9.70296 9.09316C9.7204 9.11147 9.7421 9.1252 9.76611 9.13315C9.80711 9.13915 9.8541 9.08515 9.9291 9.03615Z" fill="#3A2ADF"/>
<path id="Path 1506" d="M10.9341 7.47912C10.8781 7.46312 10.8091 7.46311 10.7701 7.42811C10.5364 7.25585 10.2661 7.13995 9.98018 7.08947C9.6943 7.03899 9.40061 7.05529 9.12208 7.13711C9.01354 7.16252 8.90253 7.17594 8.79107 7.17712C8.75644 7.17068 8.72389 7.15593 8.6962 7.13416C8.66851 7.11239 8.6465 7.08425 8.63207 7.05212C8.6292 7.01791 8.63492 6.98352 8.64872 6.95208C8.66251 6.92064 8.68396 6.89315 8.71108 6.87211C9.05495 6.68012 9.45319 6.6088 9.84232 6.66952C10.2314 6.73023 10.589 6.91949 10.8581 7.20712C10.9051 7.27712 10.9401 7.35612 10.9811 7.43112L10.9351 7.47912H10.9341Z" fill="#3A2ADF"/>
</g>
</g>
</svg>
