<svg width="16" height="10" viewBox="0 0 16 10" fill="none" xmlns="http://www.w3.org/2000/svg">
<g id="equal_FILL0_wght400_GRAD0_opsz48">
<path id="equal_FILL0_wght400_GRAD0_opsz48_2" d="M1.95177 9.59796C1.79586 9.60067 1.64103 9.57136 1.49689 9.51184C1.35276 9.45233 1.22235 9.36388 1.11376 9.25196C1.00201 9.14287 0.913769 9.01207 0.854439 8.86762C0.795108 8.72316 0.765959 8.56813 0.768776 8.41199C0.765699 8.25611 0.794734 8.10126 0.854088 7.95709C0.913442 7.81293 1.00183 7.68251 1.11376 7.57398C1.22279 7.46284 1.35334 7.37508 1.49743 7.3161C1.64151 7.25713 1.79611 7.22816 1.95177 7.23096H14.7338C14.8897 7.22825 15.0445 7.25757 15.1886 7.31708C15.3328 7.37659 15.4632 7.46505 15.5718 7.57697C15.6835 7.68609 15.7717 7.81692 15.831 7.96137C15.8903 8.10582 15.9195 8.26086 15.9168 8.41699C15.9198 8.57287 15.8907 8.72767 15.8314 8.87183C15.772 9.01599 15.6837 9.14638 15.5718 9.25495C15.4627 9.36609 15.3322 9.45385 15.1881 9.51282C15.044 9.5718 14.8894 9.60077 14.7338 9.59796H1.95177ZM1.95177 2.96997C1.79586 2.97268 1.64103 2.94337 1.49689 2.88385C1.35276 2.82434 1.22235 2.73589 1.11376 2.62396C1.00201 2.51488 0.913769 2.38408 0.854439 2.23963C0.795108 2.09517 0.765959 1.94014 0.768776 1.784C0.765699 1.62812 0.794734 1.47327 0.854088 1.3291C0.913442 1.18493 1.00183 1.05452 1.11376 0.945986C1.22279 0.834845 1.35334 0.747088 1.49743 0.688113C1.64151 0.629138 1.79611 0.600166 1.95177 0.602969H14.7338C14.8897 0.600259 15.0445 0.629576 15.1886 0.689089C15.3328 0.748603 15.4632 0.837055 15.5718 0.948977C15.6835 1.0581 15.7717 1.18887 15.831 1.33332C15.8903 1.47776 15.9195 1.63281 15.9168 1.78894C15.9197 1.94465 15.8906 2.09936 15.8312 2.24335C15.7719 2.38734 15.6836 2.51756 15.5718 2.62598C15.4627 2.73712 15.3322 2.82488 15.1881 2.88385C15.044 2.94283 14.8894 2.9718 14.7338 2.969L1.95177 2.96997Z" fill="#FE8B01"/>
</g>
</svg>
