<svg width="45" height="27" viewBox="0 0 45 27" fill="none" xmlns="http://www.w3.org/2000/svg">
<path d="M0.684082 2.66291C0.730082 2.54891 0.784062 2.43489 0.832062 2.31989C1.0048 1.82527 1.32538 1.3957 1.75037 1.0893C2.17535 0.782908 2.68421 0.614511 3.20807 0.606911H41.7201C42.118 0.600003 42.5136 0.669942 42.8851 0.812905C43.3637 0.993703 43.7734 1.3204 44.0562 1.74677C44.339 2.17315 44.4806 2.67764 44.4611 3.18891C44.4841 4.83391 44.4611 6.46691 44.4611 8.11091C44.4611 8.85291 44.1751 9.13889 43.4331 9.17289C42.4337 9.21339 41.4802 9.60312 40.7385 10.2742C39.9968 10.9453 39.514 11.8553 39.3741 12.8457C39.2343 13.836 39.4462 14.8441 39.9729 15.6944C40.4997 16.5446 41.308 17.1832 42.2571 17.4989C42.6674 17.6154 43.088 17.6918 43.5131 17.7269C43.6417 17.7184 43.7707 17.7379 43.8911 17.7841C44.0116 17.8302 44.1206 17.9019 44.2106 17.9941C44.3007 18.0864 44.3697 18.1971 44.413 18.3186C44.4562 18.4401 44.4726 18.5695 44.4611 18.6979C44.4611 20.3769 44.4721 22.0669 44.4611 23.7459C44.4598 24.417 44.1942 25.0607 43.7218 25.5374C43.2494 26.0141 42.6082 26.2855 41.9371 26.2929H3.56207C2.92971 26.3634 2.29353 26.1985 1.77515 25.8295C1.25676 25.4605 0.892528 24.9135 0.752075 24.2929C0.752075 24.2699 0.718068 24.2589 0.695068 24.2359V18.3199C0.795576 18.1245 0.950418 17.9623 1.14096 17.8528C1.3315 17.7434 1.54963 17.6913 1.76907 17.7029C2.86319 17.6499 3.89495 17.1779 4.65054 16.3848C5.40613 15.5917 5.82761 14.5383 5.82761 13.4429C5.82761 12.3475 5.40613 11.2941 4.65054 10.501C3.89495 9.70789 2.86319 9.23593 1.76907 9.1829C1.54963 9.19451 1.3315 9.14246 1.14096 9.033C0.950418 8.92353 0.795576 8.76131 0.695068 8.5659V2.64991L0.684082 2.66291ZM42.7481 7.5059V3.4629C42.7481 2.5839 42.4741 2.3209 41.5941 2.3209H12.6531V4.8679C12.6603 4.98445 12.6434 5.10126 12.6036 5.21104C12.5638 5.32082 12.5018 5.42122 12.4216 5.50605C12.3413 5.59088 12.2445 5.65831 12.1371 5.70414C12.0296 5.74997 11.914 5.77323 11.7972 5.77247C11.6804 5.77171 11.565 5.74696 11.4582 5.69975C11.3514 5.65253 11.2555 5.58385 11.1763 5.49799C11.0971 5.41214 11.0365 5.31092 10.9981 5.20063C10.9597 5.09035 10.9443 4.97337 10.9531 4.85691V2.32191H3.21008C3.0978 2.32408 2.98716 2.3493 2.88504 2.39603C2.78293 2.44277 2.69151 2.51001 2.61649 2.59358C2.54146 2.67714 2.48442 2.77524 2.44891 2.88178C2.4134 2.98832 2.40017 3.10103 2.41006 3.2129C2.39906 3.7129 2.41006 4.2069 2.41006 4.7129V7.47691C3.81708 7.6996 5.10122 8.40928 6.03842 9.48209C6.97562 10.5549 7.50637 11.9227 7.53806 13.3469C7.56735 14.6431 7.1657 15.9125 6.39606 16.9559C5.93379 17.6054 5.3458 18.1554 4.66693 18.5734C3.98806 18.9913 3.23214 19.2686 2.44406 19.3889C2.42523 19.4242 2.41367 19.463 2.41006 19.5029V23.4889C2.41006 24.3109 2.69607 24.5969 3.51807 24.5969H10.9531V22.0969C10.9441 21.9789 10.9597 21.8603 10.9987 21.7485C11.0377 21.6368 11.0993 21.5343 11.1797 21.4474C11.2602 21.3606 11.3577 21.2913 11.4662 21.2439C11.5746 21.1965 11.6917 21.172 11.8101 21.1719C11.9279 21.1739 12.0441 21.1996 12.1516 21.2477C12.2592 21.2957 12.356 21.365 12.436 21.4515C12.5161 21.5379 12.5778 21.6396 12.6176 21.7506C12.6573 21.8615 12.6741 21.9793 12.6671 22.0969V24.5869H41.8671C41.9854 24.5908 42.1032 24.5701 42.213 24.526C42.3228 24.4819 42.4223 24.4153 42.505 24.3307C42.5877 24.246 42.6518 24.145 42.6933 24.0342C42.7348 23.9233 42.7528 23.8051 42.7461 23.6869C42.7571 23.1869 42.7461 22.6929 42.7461 22.1869V19.4169C41.3188 19.2038 40.0155 18.4853 39.0735 17.3922C38.1314 16.299 37.6132 14.904 37.6132 13.4609C37.6132 12.0178 38.1314 10.6228 39.0735 9.52961C40.0155 8.43647 41.3188 7.71796 42.7461 7.50489L42.7481 7.5059Z" fill="#3A2ADF"/>
<path d="M25.9951 7.4599H33.1671C33.3308 7.44278 33.4961 7.46723 33.6479 7.53103C33.7996 7.59484 33.9328 7.69592 34.035 7.82489C34.1219 7.94323 34.1767 8.08196 34.1942 8.22769C34.2117 8.37342 34.1914 8.52119 34.1351 8.65674C34.0787 8.79228 33.9884 8.91101 33.8728 9.00143C33.7572 9.09185 33.6202 9.1509 33.475 9.17288C33.3346 9.18798 33.1931 9.19168 33.052 9.1839H18.7411C18.6197 9.19468 18.4974 9.17987 18.3821 9.14044C18.2668 9.10101 18.1611 9.03782 18.0718 8.95498C17.9824 8.87214 17.9115 8.7715 17.8634 8.65951C17.8154 8.54753 17.7914 8.42673 17.793 8.3049C17.7954 8.18617 17.8225 8.06923 17.8725 7.96151C17.9224 7.8538 17.9943 7.75767 18.0835 7.67923C18.1726 7.60079 18.2772 7.54175 18.3904 7.50589C18.5036 7.47002 18.623 7.4581 18.7411 7.47088H26.005L25.9951 7.4599Z" fill="#3A2ADF"/>
<path d="M25.9701 14.3231H18.5461C18.338 14.2981 18.1467 14.1964 18.0095 14.0379C17.8723 13.8795 17.7991 13.6756 17.8041 13.4661C17.8061 13.2578 17.8837 13.0574 18.0224 12.902C18.161 12.7466 18.3514 12.6468 18.5581 12.6211C18.6841 12.6101 18.8091 12.6211 18.9461 12.6211H33.4741C33.6807 12.6477 33.8706 12.7487 34.0082 12.9051C34.1458 13.0615 34.2218 13.2627 34.2218 13.4711C34.2218 13.6795 34.1458 13.8807 34.0082 14.0371C33.8706 14.1936 33.6807 14.2945 33.4741 14.3211C33.3333 14.3326 33.1918 14.3326 33.0511 14.3211H25.9701V14.3231Z" fill="#3A2ADF"/>
<path d="M25.993 17.7388H33.165C33.3287 17.7215 33.4941 17.746 33.6459 17.8098C33.7976 17.8736 33.9308 17.9747 34.033 18.1037C34.1188 18.2232 34.1725 18.3626 34.1888 18.5087C34.2051 18.6549 34.1836 18.8028 34.1262 18.9382C34.0689 19.0736 33.9776 19.1919 33.8613 19.2819C33.745 19.3718 33.6075 19.4303 33.462 19.4517C33.3216 19.4669 33.1801 19.4706 33.039 19.4628H18.729C18.6079 19.4726 18.486 19.4571 18.3711 19.4174C18.2562 19.3776 18.1509 19.3144 18.0617 19.2317C17.9726 19.1491 17.9016 19.0488 17.8533 18.9372C17.8049 18.8257 17.7803 18.7053 17.781 18.5838C17.7844 18.4654 17.8121 18.3489 17.8625 18.2417C17.9128 18.1345 17.9847 18.0388 18.0736 17.9606C18.1625 17.8823 18.2666 17.8232 18.3794 17.787C18.4921 17.7507 18.6112 17.738 18.729 17.7497H25.993V17.7388Z" fill="#3A2ADF"/>
<path d="M12.6541 9.18497C12.6541 9.47097 12.6651 9.756 12.6541 10.042C12.6544 10.153 12.6327 10.263 12.5903 10.3657C12.548 10.4683 12.4857 10.5616 12.4072 10.6401C12.3287 10.7186 12.2354 10.7808 12.1328 10.8232C12.0302 10.8656 11.9202 10.8873 11.8091 10.887C11.6948 10.8881 11.5815 10.8663 11.4757 10.8231C11.3699 10.7799 11.2738 10.716 11.193 10.6351C11.1122 10.5543 11.0483 10.4582 11.005 10.3524C10.9618 10.2466 10.94 10.1333 10.9411 10.019C10.9298 9.44766 10.9298 8.87664 10.9411 8.30598C10.9397 8.19553 10.9602 8.08589 11.0014 7.98344C11.0427 7.88098 11.1039 7.78776 11.1815 7.70914C11.2591 7.63053 11.3515 7.56812 11.4534 7.52552C11.5553 7.48292 11.6647 7.46097 11.7751 7.46098C11.8894 7.45991 12.0028 7.48164 12.1086 7.52488C12.2144 7.56812 12.3105 7.63202 12.3913 7.71284C12.4721 7.79365 12.536 7.88976 12.5792 7.99555C12.6225 8.10134 12.6442 8.2147 12.6431 8.32899C12.6541 8.61499 12.6431 8.89998 12.6431 9.18598L12.6541 9.18497Z" fill="#3A2ADF"/>
<path d="M12.6541 17.7489C12.6541 18.0349 12.6651 18.3199 12.6541 18.6059C12.6544 18.717 12.6327 18.827 12.5903 18.9296C12.548 19.0322 12.4857 19.1255 12.4072 19.204C12.3287 19.2825 12.2354 19.3448 12.1328 19.3872C12.0302 19.4295 11.9202 19.4512 11.8091 19.4509C11.6946 19.453 11.5808 19.4319 11.4746 19.389C11.3683 19.3461 11.2719 19.2822 11.1908 19.2012C11.1098 19.1202 11.046 19.0237 11.0031 18.9175C10.9602 18.8113 10.9391 18.6975 10.9411 18.5829C10.9298 18.0116 10.9298 17.4406 10.9411 16.8699C10.9397 16.7595 10.9602 16.6499 11.0014 16.5474C11.0427 16.4449 11.1039 16.3517 11.1815 16.2731C11.2591 16.1945 11.3515 16.1321 11.4534 16.0895C11.5553 16.0469 11.6647 16.0249 11.7751 16.0249C11.8894 16.0239 12.0028 16.0456 12.1086 16.0888C12.2144 16.1321 12.3105 16.196 12.3913 16.2768C12.4721 16.3576 12.536 16.4537 12.5792 16.5595C12.6225 16.6653 12.6442 16.7786 12.6431 16.8929C12.6541 17.1789 12.6431 17.4639 12.6431 17.7499L12.6541 17.7489Z" fill="#3A2ADF"/>
<path d="M11.797 12.6109C11.9675 12.6109 12.1341 12.6618 12.2755 12.7571C12.4168 12.8523 12.5266 12.9875 12.5907 13.1454C12.6549 13.3034 12.6704 13.4769 12.6355 13.6437C12.6005 13.8105 12.5166 13.9632 12.3944 14.0821C12.2722 14.2009 12.1174 14.2807 11.9497 14.3111C11.782 14.3415 11.609 14.3213 11.4528 14.2529C11.2967 14.1845 11.1645 14.071 11.0731 13.9271C10.9818 13.7832 10.9354 13.6153 10.94 13.4449C10.9445 13.2211 11.0369 13.0081 11.1973 12.852C11.3577 12.6959 11.5732 12.6092 11.797 12.6109Z" fill="#3A2ADF"/>
</svg>
