<svg width="19" height="17" viewBox="0 0 19 17" fill="none" xmlns="http://www.w3.org/2000/svg">
<path d="M15.2584 16.904C14.7696 16.914 14.2838 16.8238 13.8312 16.6389C13.3785 16.4541 12.9685 16.1784 12.6264 15.8289C12.2769 15.4868 12.0012 15.0767 11.8163 14.6238C11.6314 14.171 11.5413 13.685 11.5514 13.1959C11.5414 12.7071 11.6316 12.2214 11.8165 11.7687C12.0014 11.316 12.277 10.906 12.6264 10.564C12.9685 10.2146 13.3785 9.93888 13.8312 9.75399C14.2838 9.56911 14.7696 9.47892 15.2584 9.48898C15.7473 9.47892 16.2331 9.56911 16.6857 9.75399C17.1384 9.93888 17.5484 10.2146 17.8904 10.564C18.2399 10.906 18.5155 11.316 18.7004 11.7687C18.8853 12.2214 18.9755 12.7071 18.9654 13.1959C18.9756 13.685 18.8855 14.171 18.7006 14.6238C18.5157 15.0767 18.24 15.4868 17.8904 15.8289C17.5484 16.1784 17.1384 16.4541 16.6857 16.6389C16.2331 16.8238 15.7473 16.914 15.2584 16.904ZM15.2584 15.421C15.5521 15.4275 15.8439 15.3739 16.116 15.2633C16.3881 15.1527 16.6347 14.9875 16.8404 14.778C17.05 14.5722 17.2152 14.3256 17.3257 14.0536C17.4363 13.7815 17.49 13.4896 17.4834 13.1959C17.49 12.9023 17.4363 12.6105 17.3257 12.3384C17.2152 12.0663 17.05 11.8198 16.8404 11.614C16.6347 11.4044 16.3881 11.2393 16.116 11.1287C15.8439 11.0181 15.5521 10.9644 15.2584 10.971C14.9648 10.9644 14.673 11.0181 14.4009 11.1287C14.1288 11.2393 13.8822 11.4044 13.6764 11.614C13.4669 11.8198 13.3017 12.0663 13.1911 12.3384C13.0806 12.6105 13.0269 12.9023 13.0334 13.1959C13.0269 13.4896 13.0806 13.7815 13.1911 14.0536C13.3017 14.3256 13.4669 14.5722 13.6764 14.778C13.8822 14.9875 14.1288 15.1527 14.4009 15.2633C14.673 15.3739 14.9648 15.4275 15.2584 15.421ZM0.674448 13.938V12.455H9.57444V13.938H0.674448ZM3.88745 7.51095C3.39858 7.52101 2.91283 7.43082 2.46015 7.24594C2.00748 7.06105 1.59748 6.78543 1.25544 6.436C0.90601 6.09396 0.630354 5.68396 0.445467 5.23129C0.260581 4.77862 0.170386 4.29285 0.180445 3.80398C0.170386 3.31511 0.260581 2.82935 0.445467 2.37667C0.630354 1.924 0.90601 1.514 1.25544 1.17196C1.59751 0.822225 2.00764 0.546296 2.4605 0.361232C2.91335 0.176168 3.39934 0.0859063 3.88845 0.0959731C4.37732 0.0859141 4.86307 0.176101 5.31574 0.360988C5.76841 0.545875 6.1784 0.821554 6.52044 1.17099C6.86987 1.51303 7.14554 1.92303 7.33042 2.3757C7.51531 2.82837 7.6055 3.31407 7.59545 3.80294C7.6055 4.29181 7.51531 4.77758 7.33042 5.23025C7.14554 5.68292 6.86987 6.09292 6.52044 6.43496C6.17849 6.78457 5.76853 7.06045 5.31585 7.24551C4.86318 7.43057 4.37639 7.52088 3.88745 7.51095ZM3.88745 6.02798C4.18108 6.03454 4.47293 5.98085 4.74502 5.87027C5.01711 5.75968 5.26365 5.59452 5.46945 5.38497C5.679 5.17918 5.84416 4.93264 5.95474 4.66055C6.06533 4.38846 6.11901 4.09657 6.11244 3.80294C6.11901 3.50931 6.06533 3.21749 5.95474 2.9454C5.84416 2.67331 5.679 2.42676 5.46945 2.22097C5.26365 2.01142 5.01711 1.84627 4.74502 1.73568C4.47293 1.62509 4.18108 1.57141 3.88745 1.57797C3.59382 1.57141 3.30196 1.62509 3.02987 1.73568C2.75778 1.84627 2.51124 2.01142 2.30545 2.22097C2.0959 2.42676 1.93073 2.67331 1.82014 2.9454C1.70955 3.21749 1.65589 3.50931 1.66245 3.80294C1.65589 4.09657 1.70955 4.38846 1.82014 4.66055C1.93073 4.93264 2.0959 5.17918 2.30545 5.38497C2.51135 5.59465 2.75806 5.75985 3.03033 5.87045C3.3026 5.98104 3.59365 6.03468 3.88745 6.02798ZM9.57244 4.54495V3.06198H18.4724V4.54495H9.57244Z" fill="black"/>
</svg>
