<svg width="20" height="15" viewBox="0 0 20 15" fill="none" xmlns="http://www.w3.org/2000/svg">
<path id="visibility_lock_FILL0_wght400_GRAD0_opsz48 (1)" d="M10.0666 9.07789C9.76177 9.0836 9.45906 9.02658 9.17726 8.91028C8.89547 8.79399 8.64061 8.62094 8.42856 8.40192C8.21075 8.18812 8.03882 7.93216 7.92328 7.64966C7.80774 7.36717 7.75101 7.06408 7.75656 6.75892C7.75092 6.45404 7.80812 6.15126 7.92459 5.86945C8.04106 5.58764 8.21432 5.33285 8.43356 5.12092C8.6474 4.90315 8.90337 4.73127 9.18586 4.61573C9.46834 4.50019 9.77141 4.44342 10.0766 4.44892C10.3814 4.44321 10.6841 4.50029 10.9659 4.61658C11.2477 4.73288 11.5025 4.90587 11.7146 5.12488C11.9324 5.33868 12.1043 5.59465 12.2198 5.87714C12.3354 6.15964 12.3921 6.46273 12.3866 6.76789C12.3923 7.07277 12.3351 7.3756 12.2186 7.65742C12.1021 7.93923 11.9289 8.194 11.7096 8.40589C11.4957 8.62366 11.2398 8.7956 10.9573 8.91114C10.6748 9.02668 10.3717 9.08338 10.0666 9.07789ZM10.0666 12.9629C8.11222 12.981 6.20217 12.3808 4.60956 11.2479C3.00167 10.1239 1.74266 8.56998 0.976562 6.76392C1.74402 4.95724 3.00483 3.40323 4.61456 2.27991C6.20844 1.14568 8.1204 0.544996 10.0766 0.56391C11.991 0.546707 13.8642 1.12046 15.4406 2.20692C17.0362 3.29077 18.2992 4.7968 19.0886 6.55689H17.7616C17.0375 5.13255 15.9352 3.93511 14.5756 3.09589C13.2296 2.24471 11.6681 1.79641 10.0756 1.8039C8.44249 1.79343 6.84254 2.26437 5.47556 3.1579C4.09428 4.04238 2.98304 5.28995 2.26356 6.76392C2.98308 8.23787 4.09431 9.48542 5.47556 10.3699C6.84254 11.2635 8.44249 11.7344 10.0756 11.7239C10.3863 11.7237 10.6968 11.7064 11.0056 11.6719C11.3181 11.6371 11.6286 11.5854 11.9356 11.5169V12.7779C11.6315 12.847 11.3232 12.8955 11.0126 12.9229C10.6979 12.9503 10.3859 12.9639 10.0766 12.9639L10.0666 12.9629ZM10.0666 10.2759C10.421 10.2769 10.7736 10.2246 11.1126 10.1209C11.44 10.022 11.7498 9.87218 12.0306 9.67689C12.1383 9.21566 12.3236 8.77609 12.5786 8.3769C12.8272 7.98415 13.1462 7.64072 13.5196 7.3639C13.5452 7.26552 13.5626 7.16518 13.5716 7.06391C13.5782 6.97458 13.5816 6.87459 13.5816 6.76392C13.5897 6.30111 13.5028 5.84151 13.3264 5.41358C13.1499 4.98565 12.8876 4.59844 12.5556 4.27589C12.2323 3.94403 11.8445 3.6819 11.4161 3.50562C10.9877 3.32934 10.5278 3.24267 10.0646 3.25092C9.6018 3.24249 9.14222 3.32907 8.71427 3.50538C8.28632 3.68168 7.89909 3.94392 7.57656 4.27589C7.24524 4.59922 6.98357 4.98695 6.80764 5.41517C6.63171 5.84338 6.54525 6.30307 6.55356 6.76594C6.54513 7.2287 6.63174 7.68827 6.80805 8.11622C6.98435 8.54417 7.2466 8.93138 7.57856 9.25391C7.90275 9.58632 8.29173 9.84863 8.72142 10.0246C9.1511 10.2006 9.61234 10.2865 10.0766 10.2769L10.0666 10.2759ZM14.3096 14.6169C14.2149 14.6171 14.1211 14.5981 14.0341 14.5607C13.9471 14.5234 13.8686 14.4687 13.8036 14.3999C13.7348 14.3348 13.6801 14.2564 13.6427 14.1694C13.6054 14.0824 13.5863 13.9886 13.5866 13.8939V11.4139C13.5872 11.3173 13.6088 11.2221 13.6499 11.1347C13.691 11.0473 13.7506 10.97 13.8246 10.9079C13.9855 10.7623 14.1966 10.6845 14.4136 10.6909V9.76093C14.4107 9.55693 14.4496 9.35448 14.5281 9.16614C14.6065 8.9778 14.7227 8.80754 14.8696 8.6659C15.0122 8.51901 15.1833 8.40284 15.3725 8.32459C15.5617 8.24634 15.7649 8.20764 15.9696 8.21088C16.1735 8.20786 16.3759 8.2467 16.5642 8.32496C16.7525 8.40322 16.9228 8.51924 17.0646 8.6659C17.2112 8.80766 17.3272 8.978 17.4054 9.16633C17.4837 9.35465 17.5225 9.55701 17.5196 9.76093V10.6909C17.7365 10.6845 17.9476 10.7623 18.1086 10.9079C18.1825 10.97 18.2421 11.0473 18.2832 11.1347C18.3243 11.2221 18.3459 11.3173 18.3466 11.4139V13.8939C18.3468 13.9886 18.3277 14.0824 18.2904 14.1694C18.2531 14.2564 18.1983 14.3348 18.1296 14.3999C18.0645 14.4687 17.986 14.5234 17.899 14.5607C17.812 14.5981 17.7182 14.6171 17.6236 14.6169H14.3096ZM15.0326 10.6909H16.8926V9.76288C16.8957 9.64 16.8736 9.51778 16.8277 9.40375C16.7818 9.28973 16.713 9.18634 16.6256 9.09992C16.5395 9.01238 16.4365 8.94336 16.3229 8.8971C16.2092 8.85084 16.0873 8.82834 15.9646 8.83094C15.8417 8.82781 15.7195 8.84984 15.6054 8.89576C15.4914 8.94168 15.388 9.01048 15.3016 9.09791C15.2138 9.18415 15.1446 9.28752 15.0983 9.40156C15.0521 9.51559 15.0297 9.6379 15.0326 9.76093V10.6909Z" fill="#A5A4AD"/>
</svg>
