<svg width="654" height="204" viewBox="0 0 654 204" fill="none" xmlns="http://www.w3.org/2000/svg">
<path d="M549.075 134.681C572.728 134.681 591.902 115.507 591.902 91.8543C591.902 68.2016 572.728 49.0273 549.075 49.0273C525.422 49.0273 506.248 68.2016 506.248 91.8543C506.248 115.507 525.422 134.681 549.075 134.681Z" fill="url(#paint0_linear_754_2901)"/>
<path d="M550.118 98.082H545.816V193.538H550.118V98.082Z" fill="#3333CC"/>
<path d="M548.404 116.524L561.781 104.217" stroke="#3333CC" stroke-miterlimit="10"/>
<path d="M548.404 159.733L561.781 147.426" stroke="#3333CC" stroke-miterlimit="10"/>
<path d="M547.73 128.291L533.818 119.43" stroke="#3333CC" stroke-miterlimit="10"/>
<path d="M623.607 146.482C639.986 139.771 647.823 121.053 641.112 104.674C634.402 88.2957 615.684 80.4583 599.305 87.1692C582.926 93.8801 575.089 112.598 581.8 128.977C588.51 145.356 607.228 153.193 623.607 146.482Z" fill="url(#paint1_linear_754_2901)"/>
<path d="M613.108 121.258H609.898V192.722H613.108V121.258Z" fill="#3333CC"/>
<path d="M611.482 135.029L621.52 125.826" stroke="#3333CC" stroke-miterlimit="10"/>
<path d="M611.482 167.37L621.52 158.145" stroke="#3333CC" stroke-miterlimit="10"/>
<path d="M611.484 143.838L601.104 137.203" stroke="#3333CC" stroke-miterlimit="10"/>
<path d="M519.739 78.1094H502.467V88.5544H519.739V78.1094Z" fill="#A0C8F8"/>
<path d="M524.726 78.1094H512.441V88.5544H524.726V78.1094Z" fill="#D2E5FE"/>
<path d="M526.229 92.6211H523.725V192.829H526.229V92.6211Z" fill="#3333CC"/>
<path d="M482.604 92.6211H480.1V192.829H482.604V92.6211Z" fill="#3333CC"/>
<path d="M530.451 86.9297H446.895V93.3507H530.451V86.9297Z" fill="#A0C8F8"/>
<path d="M471.533 86.9297H444.865V93.3507H471.533V86.9297Z" fill="#3333CC"/>
<path d="M482.791 99.7363L524.377 114.804" stroke="#3333CC" stroke-miterlimit="10"/>
<path d="M482.791 120.934L524.377 136.023" stroke="#3333CC" stroke-miterlimit="10"/>
<path d="M482.791 142.152L524.377 157.241" stroke="#3333CC" stroke-miterlimit="10"/>
<path d="M524.377 99.7363L482.791 114.804" stroke="#3333CC" stroke-miterlimit="10"/>
<path d="M524.377 120.934L482.791 136.023" stroke="#3333CC" stroke-miterlimit="10"/>
<path d="M524.377 142.152L482.791 157.241" stroke="#3333CC" stroke-miterlimit="10"/>
<path d="M498.742 161.855H445.77V193.874H498.742V161.855Z" fill="#A0C8F8"/>
<path d="M514.202 161.855H476.49V193.874H514.202V161.855Z" fill="#D2E5FE"/>
<path d="M525.869 175.773H495.627V194.051H525.869V175.773Z" fill="#A0C8F8"/>
<path d="M534.644 175.773H513.113V194.051H534.644V175.773Z" fill="#D2E5FE"/>
<path d="M115.134 193.733C115.223 188.706 117.283 183.914 120.87 180.39C124.456 176.867 129.283 174.892 134.311 174.892C139.34 174.892 144.167 176.867 147.753 180.39C151.34 183.914 153.4 188.706 153.488 193.733H177.973V187.933C177.974 187.458 177.881 186.987 177.699 186.548C177.518 186.109 177.251 185.71 176.915 185.374C176.579 185.038 176.18 184.772 175.741 184.59C175.302 184.409 174.832 184.315 174.356 184.316H168.513C167.71 181.502 166.56 178.799 165.089 176.269L169.284 172.074C169.963 171.396 170.344 170.476 170.344 169.516C170.344 168.557 169.963 167.637 169.284 166.959L161.084 158.759C160.406 158.081 159.486 157.7 158.527 157.7C157.568 157.7 156.648 158.081 155.969 158.759L151.669 163.059C149.157 161.656 146.483 160.564 143.707 159.806V152.08C143.708 151.813 143.655 151.548 143.553 151.302C143.451 151.055 143.301 150.831 143.112 150.642C142.923 150.453 142.699 150.303 142.453 150.201C142.206 150.099 141.941 150.047 141.674 150.047H126.884C126.617 150.047 126.353 150.099 126.106 150.201C125.86 150.303 125.635 150.453 125.447 150.642C125.258 150.831 125.108 151.055 125.006 151.302C124.904 151.548 124.851 151.813 124.851 152.08V159.806C122.076 160.564 119.402 161.656 116.889 163.059L111.453 157.623C111.073 157.243 110.557 157.029 110.019 157.029C109.482 157.029 108.966 157.243 108.585 157.623L98.1404 168.068C97.7601 168.448 97.5465 168.964 97.5465 169.502C97.5465 170.04 97.7601 170.556 98.1404 170.936L103.469 176.265C101.999 178.795 100.849 181.498 100.045 184.312H92.5974C92.3304 184.312 92.066 184.364 91.8193 184.466C91.5726 184.568 91.3484 184.718 91.1596 184.907C90.9708 185.096 90.8211 185.32 90.7189 185.567C90.6168 185.813 90.5643 186.078 90.5645 186.345V193.75H115.049L115.134 193.733Z" fill="#A0C8F8"/>
<path d="M161.471 110.096H158.196C157.749 108.515 157.102 106.997 156.27 105.58L158.624 103.226C159.004 102.846 159.218 102.33 159.218 101.792C159.218 101.254 159.004 100.738 158.624 100.358L154.024 95.7579C153.644 95.3776 153.128 95.1639 152.59 95.1639C152.052 95.1639 151.536 95.3776 151.156 95.7579L148.737 98.1769C147.326 97.3852 145.824 96.767 144.264 96.3359V92.0129C144.262 91.7128 144.142 91.4256 143.93 91.2134C143.717 91.0011 143.43 90.881 143.13 90.8789H134.83C134.53 90.881 134.243 91.0011 134.03 91.2134C133.818 91.4256 133.698 91.7128 133.696 92.0129V96.3359C132.133 96.7577 130.63 97.3763 129.223 98.1769L126.162 95.1159C126.057 95.0092 125.932 94.9244 125.795 94.8666C125.657 94.8087 125.509 94.7789 125.359 94.7789C125.21 94.7789 125.062 94.8087 124.924 94.8666C124.786 94.9244 124.662 95.0092 124.557 95.1159L118.693 100.98C118.586 101.085 118.502 101.209 118.444 101.347C118.386 101.485 118.356 101.633 118.356 101.782C118.356 101.932 118.386 102.08 118.444 102.218C118.502 102.355 118.586 102.48 118.693 102.585L121.693 105.585C120.869 107.006 120.222 108.522 119.767 110.101H115.593C115.293 110.103 115.006 110.223 114.793 110.435C114.581 110.648 114.461 110.935 114.459 111.235V119.535C114.461 119.835 114.581 120.122 114.793 120.334C115.006 120.547 115.293 120.667 115.593 120.669H119.66C120.09 122.304 120.722 123.878 121.543 125.356L118.696 128.203C118.589 128.308 118.505 128.432 118.447 128.57C118.389 128.708 118.359 128.856 118.359 129.005C118.359 129.155 118.389 129.303 118.447 129.441C118.505 129.578 118.589 129.703 118.696 129.808L124.56 135.672C124.665 135.779 124.789 135.863 124.927 135.921C125.065 135.979 125.213 136.009 125.362 136.009C125.512 136.009 125.66 135.979 125.798 135.921C125.935 135.863 126.06 135.779 126.165 135.672L128.947 132.89C130.434 133.749 132.023 134.417 133.677 134.88V137.898C133.677 138.165 133.729 138.429 133.831 138.676C133.934 138.923 134.083 139.147 134.272 139.336C134.461 139.525 134.685 139.674 134.932 139.776C135.179 139.879 135.443 139.931 135.71 139.931H142.209C142.476 139.931 142.74 139.879 142.987 139.776C143.234 139.674 143.458 139.525 143.647 139.336C143.836 139.147 143.985 138.923 144.087 138.676C144.19 138.429 144.242 138.165 144.242 137.898V134.88C145.9 134.43 147.491 133.761 148.972 132.89L151.112 135.03C151.492 135.41 152.008 135.624 152.546 135.624C153.084 135.624 153.6 135.41 153.98 135.03L158.58 130.43C158.96 130.05 159.174 129.534 159.174 128.996C159.174 128.458 158.96 127.942 158.58 127.562L156.38 125.362C157.208 123.888 157.841 122.312 158.263 120.675H161.431C161.698 120.675 161.963 120.622 162.21 120.519C162.456 120.416 162.68 120.266 162.869 120.077C163.058 119.887 163.207 119.662 163.309 119.415C163.41 119.168 163.462 118.903 163.461 118.636V112.13C163.461 111.863 163.409 111.598 163.307 111.352C163.204 111.105 163.055 110.881 162.866 110.692C162.677 110.503 162.453 110.354 162.206 110.251C161.959 110.149 161.695 110.097 161.428 110.097L161.471 110.096ZM138.977 126.383C136.844 126.383 134.758 125.75 132.984 124.565C131.21 123.38 129.828 121.695 129.011 119.724C128.195 117.753 127.981 115.584 128.397 113.491C128.813 111.399 129.841 109.477 131.349 107.968C132.858 106.46 134.78 105.432 136.873 105.016C138.965 104.6 141.134 104.814 143.105 105.63C145.076 106.446 146.761 107.829 147.946 109.603C149.131 111.377 149.764 113.462 149.764 115.596C149.761 118.456 148.623 121.197 146.601 123.22C144.579 125.242 141.837 126.379 138.977 126.383Z" fill="#3333CC"/>
<path d="M456.873 4.1875H406.234V190.969H456.873C457.81 190.97 458.738 190.786 459.603 190.428C460.469 190.07 461.256 189.545 461.918 188.882C462.58 188.22 463.105 187.433 463.463 186.568C463.821 185.702 464.005 184.774 464.004 183.838V11.3375C464.005 10.4015 463.82 9.47461 463.462 8.6098C463.104 7.745 462.579 6.95922 461.918 6.29736C461.256 5.63551 460.47 5.11054 459.605 4.75247C458.74 4.3944 457.813 4.21025 456.877 4.21051L456.873 4.1875Z" fill="#A0C8F8"/>
<path d="M451.045 4.1875H149.976C148.137 4.1875 146.646 5.67839 146.646 7.5175V187.639C146.646 189.479 148.137 190.969 149.976 190.969H451.045C452.885 190.969 454.375 189.479 454.375 187.639V7.5175C454.375 5.67839 452.885 4.1875 451.045 4.1875Z" fill="#D2E5FE"/>
<path d="M447.631 0.695312H153.341C151.56 0.698485 149.852 1.40751 148.593 2.66707C147.333 3.92663 146.624 5.63403 146.621 7.41531V35.3033H454.35V7.41531C454.347 5.63421 453.638 3.92695 452.379 2.66742C451.119 1.40789 449.412 0.698749 447.631 0.695312Z" fill="#3333CC"/>
<path d="M163.698 166.926H160.938V203.204H163.698V166.926Z" fill="#A0C8F8"/>
<path d="M208.38 166.926H205.619V203.204H208.38V166.926Z" fill="#A0C8F8"/>
<path d="M210.76 168.197H157.852V182.173H210.76V168.197Z" fill="#FFB800"/>
<path d="M191.905 168.197H183.345L176.475 182.173H185.036L191.905 168.197Z" fill="#664756"/>
<path d="M208.305 168.197H199.745L192.875 182.173H201.436L208.305 168.197Z" fill="#664756"/>
<path d="M160.07 182.173H168.631L175.501 168.197H166.94L160.07 182.173Z" fill="#664756"/>
<path d="M246.71 202.702L236.993 174.857C236.922 174.655 236.791 174.48 236.616 174.356C236.442 174.233 236.233 174.166 236.019 174.166C235.805 174.166 235.597 174.233 235.422 174.356C235.248 174.48 235.116 174.655 235.045 174.857L225.328 202.702H246.71Z" fill="#FFB800"/>
<path d="M229.459 190.781L227.426 196.581C232.647 195.191 237.716 193.284 242.558 190.888L240.996 186.393C237.272 188.156 233.413 189.623 229.459 190.781Z" fill="#664756"/>
<path d="M243.945 195.139C238.15 198.161 232.003 200.454 225.645 201.966L225.303 202.951H238.509C241.42 201.688 243.838 200.468 245.509 199.551L243.968 195.121L243.945 195.139Z" fill="#664756"/>
<path d="M233.43 179.2L231.354 185.15C234.175 184.237 236.946 183.172 239.654 181.961L238.07 177.402C236.636 178.002 235.07 178.622 233.447 179.202L233.43 179.2Z" fill="#664756"/>
<path d="M248.29 202.301H223.227V203.628H248.29V202.301Z" fill="#FF9C00"/>
<path d="M240.26 202.301H231.36C231.185 202.302 231.017 202.372 230.893 202.496C230.768 202.62 230.698 202.788 230.697 202.964C230.698 203.139 230.768 203.307 230.893 203.431C231.017 203.556 231.185 203.626 231.36 203.627H240.26C240.436 203.626 240.604 203.556 240.728 203.431C240.852 203.307 240.922 203.139 240.923 202.964C240.922 202.788 240.852 202.62 240.728 202.496C240.604 202.372 240.436 202.302 240.26 202.301Z" fill="#ED8300"/>
<path d="M550.626 202.702L540.909 174.857C540.838 174.655 540.707 174.48 540.532 174.356C540.358 174.233 540.149 174.166 539.935 174.166C539.721 174.166 539.513 174.233 539.338 174.356C539.164 174.48 539.032 174.655 538.961 174.857L529.244 202.702H550.625H550.626Z" fill="#FFB800"/>
<path d="M533.265 190.781L531.232 196.581C536.453 195.191 541.523 193.284 546.364 190.888L544.802 186.393C541.078 188.155 537.22 189.623 533.265 190.781Z" fill="#664756"/>
<path d="M547.845 195.139C542.05 198.161 535.903 200.454 529.545 201.966L529.203 202.951H542.409C545.32 201.688 547.738 200.468 549.409 199.551L547.868 195.121L547.845 195.139Z" fill="#664756"/>
<path d="M537.127 179.2L535.051 185.15C537.873 184.237 540.643 183.172 543.351 181.961L541.771 177.402C540.337 178.002 538.771 178.622 537.148 179.202L537.127 179.2Z" fill="#664756"/>
<path d="M552.247 202.301H527.184V203.628H552.247V202.301Z" fill="#FF9C00"/>
<path d="M543.99 202.301H535.09C534.914 202.302 534.746 202.372 534.621 202.496C534.497 202.62 534.427 202.788 534.426 202.964C534.427 203.139 534.497 203.308 534.621 203.432C534.746 203.556 534.914 203.626 535.09 203.627H543.99C544.165 203.626 544.333 203.556 544.457 203.431C544.582 203.307 544.652 203.139 544.653 202.964C544.652 202.788 544.582 202.62 544.457 202.496C544.333 202.372 544.165 202.302 543.99 202.301Z" fill="#ED8300"/>
<path d="M463.678 16.595L463.913 15.5251L464.726 15.2471L464.512 16.2531L465.412 17.045L466.568 16.66L466.825 15.483L466.055 14.798L466.955 14.498L467.79 15.2471L467.34 17.347L467.105 17.433L469.973 26.101L468.304 26.657L465.415 17.989L465.287 18.032L463.678 16.595Z" fill="#FFB800"/>
<path d="M491.092 14.9631C492.163 14.9602 493.19 14.5336 493.948 13.7762C494.706 13.0189 495.133 11.9925 495.137 10.9211V7.53914C495.134 6.46723 494.707 5.44005 493.949 4.6821C493.191 3.92414 492.164 3.49704 491.092 3.49414C490.02 3.49704 488.993 3.92414 488.235 4.6821C487.477 5.44005 487.05 6.46723 487.047 7.53914V10.9211C487.051 11.9925 487.478 13.0189 488.236 13.7762C488.994 14.5336 490.02 14.9602 491.092 14.9631Z" fill="#F5C9A0"/>
<path d="M490.266 14.4434C490.159 15.466 489.884 16.464 489.453 17.3974H493.669L492.791 13.5664L490.266 14.4434Z" fill="#F5C9A0"/>
<path d="M500.384 19.2102L503.017 33.5932C503.056 33.8156 503.047 34.044 502.989 34.2624C502.931 34.4808 502.826 34.6838 502.681 34.8572C502.536 35.0306 502.355 35.1701 502.15 35.266C501.946 35.3619 501.723 35.4118 501.497 35.4122C501.157 35.412 500.827 35.3012 500.557 35.0966C500.286 34.892 500.089 34.6046 499.997 34.2782L496.08 19.8102C496.015 19.5734 496.008 19.3247 496.059 19.0846C496.11 18.8446 496.217 18.62 496.372 18.4297C496.526 18.2393 496.724 18.0885 496.949 17.9898C497.174 17.8911 497.419 17.8474 497.664 17.8622L498.927 17.9482C499.27 17.9684 499.597 18.1043 499.853 18.3336C500.11 18.5628 500.281 18.8721 500.34 19.2112L500.384 19.2102Z" fill="#D9DAE6"/>
<path d="M469.827 23.0065L469.441 22.4715L469.185 21.7865L468.693 21.2305L468.521 21.6585L468.799 22.2795L468.863 22.9435L469.827 23.0065Z" fill="#F5B094"/>
<path d="M470.89 24.3449L469.99 23.0609L468.77 22.4829C468.77 22.4829 466.223 21.9479 466.159 22.1619C466.116 22.3759 466.523 22.7399 466.523 22.7399C466.694 23.2643 466.924 23.7675 467.208 24.2399C467.979 24.376 468.759 24.4476 469.541 24.4539L470.29 25.1389L470.868 24.3469L470.89 24.3449Z" fill="#F5C9A0"/>
<path d="M502.538 35.1804L496.674 45.9034L495.197 44.6404L499.863 32.3984L502.538 35.1804Z" fill="#D9DAE6"/>
<path d="M477.001 83.8668L476.787 84.8298L473.127 86.4778H479.355L479.184 84.4658L479.291 83.7168L477.001 83.8668Z" fill="#392836"/>
<path d="M498.762 83.8668L498.548 84.8298L494.867 86.4778H501.095L500.945 84.4658L501.052 83.7168L498.762 83.8668Z" fill="#392836"/>
<path d="M498.825 41.6425L497.969 59.9205L501.586 82.8855H497.969L492.447 59.2745L490.521 40.1445L498.825 41.6425Z" fill="#FFB800"/>
<path d="M492.663 42.1197L485.236 62.7307L480.336 83.1487H476.936L480.336 62.3237L482.883 41.2637L492.663 42.1197Z" fill="#FFB800"/>
<path d="M499.704 19.8121L497.804 34.4521L498.874 41.4722H482.924L483.524 19.0631C483.53 18.8507 483.578 18.6415 483.665 18.4478C483.753 18.254 483.878 18.0795 484.033 17.9342C484.188 17.789 484.37 17.6759 484.569 17.6016C484.769 17.5273 484.98 17.4931 485.193 17.5011L498.185 18.0152C498.406 18.0236 498.624 18.0781 498.823 18.1753C499.022 18.2725 499.199 18.4102 499.342 18.5796C499.485 18.749 499.591 18.9464 499.654 19.1591C499.716 19.3719 499.734 19.5953 499.705 19.8151L499.704 19.8121Z" fill="#FFB800"/>
<path d="M486.047 20.4213L479.434 33.4773C479.331 33.6787 479.186 33.8552 479.008 33.9945C478.83 34.1337 478.623 34.2323 478.403 34.2832C478.183 34.3342 477.954 34.3364 477.733 34.2896C477.512 34.2428 477.304 34.1481 477.123 34.0123C476.854 33.808 476.661 33.521 476.572 33.1957C476.483 32.8703 476.504 32.5247 476.631 32.2123L482.281 18.3223C482.372 18.0942 482.517 17.8914 482.704 17.731C482.89 17.5706 483.112 17.4573 483.351 17.4007C483.59 17.344 483.839 17.3457 484.078 17.4055C484.316 17.4653 484.537 17.5815 484.721 17.7443L485.684 18.5793C485.944 18.8043 486.121 19.11 486.187 19.4475C486.253 19.785 486.204 20.1349 486.048 20.4413L486.047 20.4213Z" fill="#D9DAE6"/>
<path d="M471.543 24.754L470.708 23.791L469.723 24.947L470.323 25.632L471.543 24.754Z" fill="#F3F5F5"/>
<path d="M471.676 24.1641L479.167 31.6761C479.286 31.798 479.373 31.948 479.419 32.1122C479.465 32.2764 479.469 32.4497 479.431 32.6159C479.392 32.7821 479.313 32.936 479.199 33.0634C479.086 33.1909 478.942 33.2877 478.782 33.3451L477.369 33.8591C477.168 33.9293 476.95 33.9341 476.746 33.8727C476.542 33.8112 476.363 33.6867 476.235 33.5171L470.264 25.6621L471.676 24.1641Z" fill="#D9DAE6"/>
<path d="M495.557 6.02446C495.897 6.71886 496.087 7.47747 496.114 8.25046C496.264 9.83446 495.237 13.9865 493.246 14.9505C492.368 15.2715 490.057 13.7505 489.736 13.4305C489.351 12.6459 489.057 11.8203 488.858 10.9695C489.064 10.9276 489.259 10.8446 489.432 10.7253C489.604 10.6061 489.751 10.4531 489.863 10.2756C489.975 10.098 490.05 9.89968 490.084 9.6924C490.117 9.48512 490.108 9.27322 490.058 9.06946C489.737 7.48546 489.095 7.78546 488.858 8.10646C488.674 8.38407 488.517 8.67796 488.387 8.98445L487.98 8.25645C488.305 7.70109 488.571 7.1128 488.772 6.50145C488.922 5.85945 487.894 6.26646 487.338 5.62346C486.782 4.98046 487.659 3.46145 488.772 2.99045C489.885 2.51945 490.934 3.39746 492.047 3.39746C493.16 3.39746 495.472 3.79846 495.557 6.02446Z" fill="#4B8BFF"/>
<path d="M487.769 8.375C487.537 8.92172 487.456 9.52038 487.534 10.109C487.641 11.179 486.956 10.965 486.678 11.436C486.421 11.907 487.47 14.261 488.478 14.582C489.548 14.903 489.978 13.148 489.978 13.148L488.972 11.607C488.615 11.4037 488.336 11.0869 488.18 10.707C488.121 10.0845 488.157 9.45668 488.287 8.845L487.773 8.396L487.769 8.375Z" fill="#4B8BFF"/>
<path d="M483.132 18.8835C483.138 18.671 483.186 18.4618 483.274 18.2681C483.361 18.0743 483.486 17.8998 483.641 17.7545C483.796 17.6093 483.979 17.4963 484.178 17.4219C484.377 17.3476 484.589 17.3134 484.801 17.3215L488.461 17.4715V26.0715C488.463 26.6396 488.352 27.2025 488.135 27.7277C487.919 28.2529 487.6 28.7301 487.198 29.1318C486.797 29.5335 486.319 29.8519 485.794 30.0686C485.269 30.2853 484.706 30.396 484.138 30.3945H482.832L483.132 18.8835Z" fill="#D9DAE6"/>
<path d="M485.716 7.20665C485.716 7.05665 486.187 6.73564 486.572 6.50064C486.893 3.71864 488.926 1.55664 491.43 1.55664C494.148 1.55664 496.353 4.10365 496.353 7.22865H485.695L485.716 7.20665Z" fill="#FFB800"/>
<path d="M487.76 37.9297H496.635C496.861 37.9297 497.045 37.7461 497.045 37.5197V32.4107C497.045 32.1843 496.861 32.0007 496.635 32.0007H487.76C487.533 32.0007 487.35 32.1843 487.35 32.4107V37.5197C487.35 37.7461 487.533 37.9297 487.76 37.9297Z" fill="#FFA200"/>
<path d="M480.428 54.9429L483.841 55.536C483.994 55.5625 484.139 55.4605 484.165 55.3081L485.257 49.0283C485.283 48.8759 485.181 48.7309 485.029 48.7045L481.616 48.1113C481.464 48.0848 481.319 48.1868 481.292 48.3392L480.201 54.619C480.174 54.7714 480.276 54.9164 480.428 54.9429Z" fill="#FFA200"/>
<path opacity="0.38" d="M443.012 165.41H389.955V193.918H443.012V165.41Z" fill="#A0C8F8"/>
<path d="M412.033 161.855H359.061V193.874H412.033V161.855Z" fill="#A0C8F8"/>
<path d="M427.566 161.855H389.854V193.874H427.566V161.855Z" fill="#3333CC"/>
<path d="M249.105 24.9989H164.029C162.61 24.9983 161.249 24.4344 160.246 23.431C159.242 22.4276 158.678 21.0669 158.678 19.6479C158.678 18.2289 159.242 16.8681 160.246 15.8647C161.249 14.8613 162.61 14.2974 164.029 14.2969H249.105C250.524 14.2974 251.884 14.8613 252.888 15.8647C253.891 16.8681 254.455 18.2289 254.456 19.6479C254.455 21.0669 253.891 22.4276 252.888 23.431C251.884 24.4344 250.524 24.9983 249.105 24.9989Z" fill="#F6FCFF"/>
<path d="M380.917 25.0008C383.873 25.0008 386.268 22.6051 386.268 19.6498C386.268 16.6946 383.873 14.2988 380.917 14.2988C377.962 14.2988 375.566 16.6946 375.566 19.6498C375.566 22.6051 377.962 25.0008 380.917 25.0008Z" fill="#F6FCFF"/>
<path d="M410.117 25.0008C413.072 25.0008 415.468 22.6051 415.468 19.6498C415.468 16.6946 413.072 14.2988 410.117 14.2988C407.161 14.2988 404.766 16.6946 404.766 19.6498C404.766 22.6051 407.161 25.0008 410.117 25.0008Z" fill="#F6FCFF"/>
<path d="M439.318 25.0008C442.273 25.0008 444.669 22.6051 444.669 19.6498C444.669 16.6946 442.273 14.2988 439.318 14.2988C436.363 14.2988 433.967 16.6946 433.967 19.6498C433.967 22.6051 436.363 25.0008 439.318 25.0008Z" fill="#F6FCFF"/>
<path d="M296.293 99.9838V99.2988L297.641 99.6628L297.491 100.348L296.293 99.9838Z" fill="#F3F5F5"/>
<path d="M246.38 53.4668H156.642C155.559 53.4668 154.682 54.3443 154.682 55.4268V128.257C154.682 129.339 155.559 130.217 156.642 130.217H246.38C247.462 130.217 248.34 129.339 248.34 128.257V55.4268C248.34 54.3443 247.462 53.4668 246.38 53.4668Z" fill="#A0C8F8"/>
<path d="M246.38 142.826H156.642C155.559 142.826 154.682 143.704 154.682 144.786V155.291C154.682 156.374 155.559 157.251 156.642 157.251H246.38C247.462 157.251 248.34 156.374 248.34 155.291V144.786C248.34 143.704 247.462 142.826 246.38 142.826Z" fill="#A0C8F8"/>
<path d="M312.201 122.792C313.273 122.789 314.3 122.362 315.058 121.604C315.816 120.846 316.243 119.819 316.246 118.747V115.365C316.243 114.293 315.816 113.266 315.058 112.508C314.3 111.75 313.273 111.323 312.201 111.32C311.129 111.323 310.102 111.75 309.344 112.508C308.586 113.266 308.159 114.293 308.156 115.365V118.747C308.159 119.819 308.586 120.846 309.344 121.604C310.102 122.362 311.129 122.789 312.201 122.792Z" fill="#F5C9A0"/>
<path d="M311.409 122.217C311.301 123.239 311.027 124.237 310.596 125.171H314.812L313.934 121.34L311.409 122.217Z" fill="#F5C9A0"/>
<path d="M315.455 112.045L316.846 99.9102L318.687 100.531L318.944 113.608L315.455 112.045Z" fill="#D9DAE6"/>
<path d="M342.922 104.534H252.222C251.064 104.536 249.916 104.309 248.846 103.867C247.775 103.424 246.802 102.775 245.983 101.956C245.164 101.136 244.515 100.164 244.072 99.093C243.63 98.0224 243.403 96.8749 243.404 95.7165C243.403 94.558 243.63 93.4105 244.072 92.3399C244.515 91.2693 245.164 90.2965 245.983 89.4774C246.802 88.6582 247.775 88.0087 248.846 87.5662C249.916 87.1236 251.064 86.8967 252.222 86.8984H342.922C344.081 86.8967 345.228 87.1236 346.299 87.5662C347.369 88.0087 348.342 88.6582 349.161 89.4774C349.981 90.2965 350.63 91.2693 351.073 92.3399C351.515 93.4105 351.742 94.558 351.74 95.7165C351.742 96.8749 351.515 98.0224 351.073 99.093C350.63 100.164 349.981 101.136 349.161 101.956C348.342 102.775 347.369 103.424 346.299 103.867C345.228 104.309 344.081 104.536 342.922 104.534Z" fill="#3333CC"/>
<path d="M316.682 127.358L315.569 112.783C315.552 112.558 315.585 112.333 315.664 112.122C315.744 111.912 315.869 111.721 316.03 111.564C316.191 111.407 316.385 111.287 316.597 111.213C316.81 111.139 317.036 111.112 317.26 111.135C317.595 111.169 317.909 111.314 318.153 111.547C318.397 111.779 318.557 112.086 318.608 112.419L320.962 127.23C321.001 127.473 320.982 127.723 320.905 127.957C320.827 128.191 320.695 128.403 320.518 128.575C320.342 128.748 320.126 128.875 319.89 128.946C319.654 129.017 319.404 129.031 319.162 128.985L317.899 128.771C317.565 128.71 317.26 128.541 317.031 128.289C316.803 128.038 316.664 127.718 316.636 127.38L316.682 127.358Z" fill="#D9DAE6"/>
<path d="M297.978 100.706L297.957 100.043L298.128 99.3374L298.021 98.6094L297.614 98.8664L297.507 99.5514L297.207 100.129L297.978 100.706Z" fill="#F5B094"/>
<path d="M298.101 102.407L298.058 100.845L297.352 99.6894C297.352 99.6894 295.511 97.8273 295.362 97.9773C295.213 98.1273 295.362 98.6624 295.362 98.6624C295.212 99.192 295.133 99.7391 295.127 100.289C295.693 100.838 296.309 101.333 296.968 101.766L297.203 102.751L298.123 102.409L298.101 102.407Z" fill="#F5C9A0"/>
<path d="M298.128 191.653L297.914 192.595L294.254 194.243H300.482L300.311 192.231L300.418 191.482L298.128 191.653Z" fill="#392836"/>
<path d="M319.889 191.653L319.675 192.595L315.994 194.243H322.224L322.074 192.231L322.181 191.482L319.889 191.653Z" fill="#392836"/>
<path d="M319.906 149.718L319.05 167.996L322.667 190.961H319.05L313.528 167.354L311.602 148.238L319.906 149.718Z" fill="#FFB800"/>
<path d="M313.702 150.189L306.275 170.821L301.375 191.221H297.975L301.375 170.396L303.922 149.336L313.702 150.189Z" fill="#FFB800"/>
<path d="M320.725 127.738L318.825 142.378L319.895 149.398H303.945L304.545 126.989C304.551 126.776 304.599 126.567 304.687 126.374C304.774 126.18 304.899 126.005 305.054 125.86C305.209 125.715 305.392 125.602 305.591 125.527C305.79 125.453 306.002 125.419 306.214 125.427L319.205 125.941C319.427 125.949 319.644 126.004 319.844 126.101C320.043 126.198 320.22 126.336 320.363 126.505C320.506 126.675 320.612 126.872 320.674 127.085C320.737 127.298 320.754 127.521 320.725 127.741V127.738Z" fill="#FFB800"/>
<path d="M303.497 128.197L297.975 114.649C297.89 114.439 297.852 114.213 297.863 113.987C297.875 113.76 297.936 113.539 298.042 113.339C298.148 113.139 298.297 112.965 298.477 112.828C298.658 112.692 298.867 112.596 299.088 112.549C299.42 112.479 299.766 112.52 300.072 112.667C300.378 112.814 300.627 113.059 300.779 113.362L307.564 126.723C307.675 126.942 307.732 127.183 307.73 127.428C307.729 127.673 307.669 127.915 307.557 128.132C307.444 128.35 307.281 128.537 307.081 128.679C306.881 128.821 306.651 128.914 306.408 128.949L305.145 129.12C304.806 129.162 304.461 129.094 304.164 128.924C303.867 128.754 303.633 128.492 303.497 128.178V128.197Z" fill="#D9DAE6"/>
<path d="M298.447 103.103L298.276 101.84L296.799 102.268L296.927 103.168L298.447 103.103Z" fill="#F3F5F5"/>
<path d="M298.778 102.687L300.878 113.087C300.911 113.255 300.901 113.428 300.849 113.59C300.797 113.753 300.705 113.9 300.581 114.017C300.457 114.135 300.306 114.219 300.141 114.262C299.975 114.305 299.802 114.306 299.637 114.264L298.182 113.9C297.973 113.846 297.787 113.729 297.649 113.564C297.51 113.399 297.428 113.195 297.412 112.98L296.77 103.135L298.782 102.664L298.778 102.687Z" fill="#D9DAE6"/>
<path d="M316.658 113.858C316.999 114.553 317.189 115.311 317.215 116.084C317.365 117.689 316.337 121.82 314.347 122.784C313.47 123.105 311.158 121.584 310.837 121.264C310.453 120.48 310.158 119.654 309.959 118.803C310.165 118.762 310.36 118.679 310.533 118.559C310.706 118.44 310.853 118.287 310.965 118.11C311.077 117.932 311.152 117.734 311.185 117.526C311.219 117.319 311.21 117.107 311.159 116.903C310.838 115.319 310.196 115.619 309.959 115.94C309.776 116.218 309.618 116.512 309.488 116.818L309.081 116.09C309.407 115.535 309.672 114.947 309.873 114.335C310.023 113.693 308.995 114.1 308.439 113.457C307.883 112.814 308.76 111.295 309.873 110.824C310.986 110.353 312.035 111.231 313.148 111.231C314.261 111.231 316.568 111.632 316.658 113.858Z" fill="#A557FF"/>
<path d="M304.267 126.723C304.273 126.511 304.321 126.302 304.408 126.108C304.496 125.914 304.62 125.74 304.776 125.594C304.931 125.449 305.113 125.336 305.312 125.262C305.512 125.187 305.723 125.153 305.936 125.161L309.596 125.311V133.911C309.597 134.479 309.487 135.042 309.27 135.568C309.053 136.093 308.735 136.57 308.333 136.972C307.931 137.373 307.454 137.692 306.929 137.908C306.404 138.125 305.841 138.236 305.273 138.234H303.967L304.267 126.719V126.723Z" fill="#D9DAE6"/>
<path d="M306.802 115.015C306.802 114.865 307.273 114.544 307.658 114.309C307.979 111.527 310.012 109.365 312.516 109.365C315.234 109.365 317.439 111.912 317.439 115.037H306.781L306.802 115.015Z" fill="#FFB800"/>
<path d="M308.856 145.719H317.731C317.957 145.719 318.141 145.535 318.141 145.309V140.2C318.141 139.973 317.957 139.79 317.731 139.79H308.856C308.629 139.79 308.446 139.973 308.446 140.2V145.309C308.446 145.535 308.629 145.719 308.856 145.719Z" fill="#FFA200"/>
<path d="M301.587 162.759L305 163.352C305.152 163.379 305.297 163.277 305.323 163.125L306.415 156.845C306.441 156.692 306.339 156.547 306.187 156.521L302.774 155.928C302.622 155.901 302.477 156.003 302.45 156.156L301.359 162.435C301.332 162.588 301.434 162.733 301.587 162.759Z" fill="#FFA200"/>
<path d="M445.168 53.1328H382.758V115.543H445.168V53.1328Z" fill="#3333CC"/>
<path d="M445.168 125.17H382.758V133.902H445.168V125.17Z" fill="#3333CC"/>
<path d="M445.168 141.484H382.758V150.216H445.168V141.484Z" fill="#3333CC"/>
<path d="M44.9728 158.668C53.1223 150.519 53.1223 137.306 44.9728 129.156C36.8233 121.007 23.6104 121.007 15.461 129.156C7.31152 137.306 7.31152 150.519 15.461 158.668C23.6104 166.817 36.8233 166.817 44.9728 158.668Z" fill="url(#paint2_linear_754_2901)"/>
<path d="M23.8411 146.764H21.7441V193.294H23.8411V146.764Z" fill="#3333CC"/>
<path d="M31.2207 155.71L37.7487 149.717" stroke="#3333CC" stroke-miterlimit="10"/>
<path d="M31.2207 176.761L37.7487 170.768" stroke="#3333CC" stroke-miterlimit="10"/>
<path d="M22.7943 161.431L16.0312 157.129" stroke="#3333CC" stroke-miterlimit="10"/>
<path d="M76.2965 146.158C92.5458 139.123 100.015 120.248 92.9803 103.998C85.9453 87.7492 67.0696 80.2796 50.8203 87.3146C34.5711 94.3497 27.1015 113.225 34.1365 129.475C41.1716 145.724 60.0473 153.194 76.2965 146.158Z" fill="url(#paint3_linear_754_2901)"/>
<path d="M66.3506 121.258H63.1406V192.722H66.3506V121.258Z" fill="#3333CC"/>
<path d="M64.8984 135.029L74.9144 125.826" stroke="#3333CC" stroke-miterlimit="10"/>
<path d="M64.8984 167.37L74.9144 158.145" stroke="#3333CC" stroke-miterlimit="10"/>
<path d="M64.3922 143.838L53.9902 137.203" stroke="#3333CC" stroke-miterlimit="10"/>
<defs>
<linearGradient id="paint0_linear_754_2901" x1="512.415" y1="18.9628" x2="601.238" y2="195.496" gradientUnits="userSpaceOnUse">
<stop stop-color="white"/>
<stop offset="1" stop-color="#3333CC"/>
</linearGradient>
<linearGradient id="paint1_linear_754_2901" x1="565.389" y1="76.7517" x2="676.983" y2="173.794" gradientUnits="userSpaceOnUse">
<stop stop-color="white"/>
<stop offset="1" stop-color="#3333CC"/>
</linearGradient>
<linearGradient id="paint2_linear_754_2901" x1="-7.52872" y1="131.429" x2="83.9284" y2="161.678" gradientUnits="userSpaceOnUse">
<stop stop-color="white"/>
<stop offset="1" stop-color="#3333CC"/>
</linearGradient>
<linearGradient id="paint3_linear_754_2901" x1="16.6931" y1="77.5643" x2="130.221" y2="172.423" gradientUnits="userSpaceOnUse">
<stop stop-color="white"/>
<stop offset="1" stop-color="#3333CC"/>
</linearGradient>
</defs>
</svg>
